<svg width="18" height="12" viewBox="0 0 18 12" fill="none" xmlns="http://www.w3.org/2000/svg">
<g clip-path="url(#clip0_158_1407)">
<path d="M8.57932 11.7479H16.7275L14.7912 7.19385H8.49012H2.19018L0.253906 11.7479H8.40206H8.57932Z" fill="#00AE6A"/>
<path d="M16.7269 12.0011H0.254501C0.212543 12.001 0.171258 11.9906 0.134305 11.9709C0.0973511 11.9512 0.0658688 11.9227 0.0426458 11.888C0.0194229 11.8534 0.0051757 11.8136 0.00116715 11.7721C-0.0028414 11.7307 0.00351196 11.6889 0.0196643 11.6505L1.95594 7.09646C1.97513 7.05067 2.00758 7.01154 2.04917 6.98403C2.09077 6.95652 2.13965 6.94186 2.18964 6.9419H14.7907C14.8408 6.94178 14.8899 6.9564 14.9317 6.98391C14.9735 7.01142 15.0061 7.05058 15.0255 7.09646L16.9606 11.6505C16.9771 11.6888 16.9836 11.7306 16.9798 11.772C16.976 11.8135 16.9619 11.8534 16.9387 11.8881C16.9156 11.9228 16.8841 11.9513 16.8472 11.971C16.8102 11.9907 16.7689 12.0011 16.7269 12.0011ZM0.637239 11.4971H16.3442L14.6224 7.44591H2.359L0.637239 11.4971Z" fill="#00AE6A"/>
<path d="M14.8569 0.251953H2.19043V7.1939H14.8569V0.251953Z" fill="#3899D7"/>
<path d="M14.8561 7.44587H2.18958C2.1222 7.44587 2.05759 7.41932 2.00995 7.37206C1.96231 7.3248 1.93555 7.2607 1.93555 7.19387V0.256401C1.93555 0.189565 1.96231 0.125465 2.00995 0.0782041C2.05759 0.0309437 2.1222 0.00439453 2.18958 0.00439453H14.8561C14.9235 0.00439453 14.9881 0.0309437 15.0357 0.0782041C15.0833 0.125465 15.1101 0.189565 15.1101 0.256401V7.20059C15.1083 7.26625 15.0808 7.32864 15.0334 7.37445C14.9859 7.42027 14.9223 7.4459 14.8561 7.44587ZM2.44361 6.94186H14.602V0.503927H2.44361V6.94186Z" fill="#3899D7"/>
<path d="M17.7464 11.2482L16.7969 11.7478L13.9043 6.24953L14.8538 5.75L17.7464 11.2482Z" fill="#00AE6A"/>
<path d="M16.7963 12.0012C16.7706 12.0011 16.745 11.9969 16.7206 11.9889C16.6886 11.9793 16.6588 11.9635 16.633 11.9423C16.6073 11.9212 16.586 11.8951 16.5705 11.8657L13.6779 6.36636C13.6479 6.3077 13.6422 6.23971 13.662 6.17692C13.6818 6.11413 13.7256 6.06153 13.784 6.03035L14.7336 5.53082C14.7631 5.51523 14.7955 5.50562 14.8288 5.50254C14.8622 5.49947 14.8958 5.50299 14.9277 5.5129C14.9923 5.53324 15.0462 5.57788 15.0779 5.63723L17.9705 11.1355C18.0008 11.1941 18.0067 11.2622 17.9868 11.325C17.9669 11.3879 17.9229 11.4405 17.8643 11.4715L16.9148 11.971C16.8785 11.9908 16.8377 12.0012 16.7963 12.0012ZM14.2447 6.35516L16.9024 11.4076L17.4037 11.1433L14.746 6.09196L14.2447 6.35516Z" fill="white"/>
<path d="M14.7758 8.58734C16.65 8.13857 17.8026 6.26756 17.3502 4.40832C16.8978 2.54908 15.0118 1.40566 13.1376 1.85443C11.2635 2.30319 10.1109 4.17421 10.5632 6.03345C11.0156 7.89269 12.9016 9.0361 14.7758 8.58734Z" fill="#00AE6A"/>
<path d="M13.966 8.93097C13.0516 8.93226 12.1684 8.60156 11.4829 8.00124C10.7975 7.40092 10.3571 6.57249 10.245 5.67225C10.133 4.77201 10.3568 3.8622 10.8745 3.11446C11.3921 2.36672 12.1676 1.83274 13.0548 1.61328C13.942 1.39382 14.8795 1.50403 15.6904 1.92314C16.5014 2.34224 17.1296 3.04126 17.4567 3.88832C17.7838 4.73537 17.7871 5.67189 17.466 6.5212C17.1449 7.37052 16.5216 8.07389 15.7137 8.49864C15.1753 8.78162 14.5753 8.93002 13.966 8.93097ZM13.9547 2.0047C13.1366 2.00481 12.3488 2.31171 11.7492 2.86386C11.1495 3.41601 10.7825 4.1726 10.7216 4.98194C10.6607 5.79128 10.9104 6.59355 11.4207 7.2279C11.931 7.86226 12.6642 8.2818 13.4732 8.40243C14.2822 8.52305 15.1073 8.33584 15.783 7.87832C16.4588 7.42081 16.9352 6.72681 17.1168 5.93546C17.2984 5.14411 17.1718 4.31391 16.7622 3.6113C16.3527 2.9087 15.6907 2.38562 14.9087 2.14695C14.5996 2.05283 14.2781 2.00489 13.9547 2.0047Z" fill="white"/>
<path d="M15.9922 5.5599C16.1836 4.44646 15.429 3.38988 14.3066 3.19996C13.1842 3.01003 12.1192 3.75869 11.9277 4.87213C11.7363 5.98557 12.4909 7.04215 13.6133 7.23207C14.7357 7.42199 15.8007 6.67334 15.9922 5.5599Z" fill="white"/>
<path d="M13.9624 7.51323C13.3974 7.51336 12.852 7.30841 12.4289 6.93704C12.0058 6.56567 11.7343 6.05355 11.6656 5.49727C11.5969 4.941 11.7358 4.37902 12.0561 3.91733C12.3763 3.45565 12.8558 3.12617 13.404 2.99105C13.9523 2.85592 14.5315 2.92449 15.0323 3.18382C15.5331 3.44315 15.9209 3.87532 16.1227 4.39881C16.3244 4.92229 16.3261 5.50091 16.1273 6.02553C15.9286 6.55015 15.5433 6.9845 15.044 7.24666C14.7106 7.42141 14.3394 7.51291 13.9624 7.51323ZM13.9556 3.424C13.6614 3.42397 13.3717 3.49591 13.1122 3.63344C12.7226 3.83877 12.4222 4.17844 12.2677 4.58838C12.1131 4.99832 12.1152 5.45018 12.2734 5.85873C12.4316 6.26728 12.7351 6.60426 13.1265 6.80611C13.518 7.00797 13.9704 7.06073 14.3983 6.95444C14.8263 6.84816 15.2003 6.59018 15.4497 6.22918C15.6991 5.86817 15.8068 5.4291 15.7523 4.99479C15.6978 4.56047 15.485 4.16095 15.154 3.87158C14.823 3.58221 14.3967 3.423 13.9556 3.424Z" fill="white"/>
</g>
<defs>
<clipPath id="clip0_158_1407">
<rect width="18" height="12" fill="white"/>
</clipPath>
</defs>
</svg>
