<svg width="12" height="11" viewBox="0 0 12 11" fill="none" xmlns="http://www.w3.org/2000/svg">
<path d="M10.1801 11H1.81991C1.3379 10.9979 0.876236 10.8099 0.5354 10.4768C0.194564 10.1437 0.00213755 9.6926 0 9.22158V3.34148C0.00240447 2.87063 0.194948 2.41975 0.535756 2.0869C0.876563 1.75405 1.33807 1.56614 1.81991 1.56406H3.65708V0.884248C3.65708 0.0833638 3.74238 0 4.56297 0H7.43703C8.25762 0 8.34293 0.0833638 8.34293 0.884248V1.56406H10.1801C10.6619 1.56614 11.1234 1.75405 11.4642 2.0869C11.8051 2.41975 11.9976 2.87063 12 3.34148V9.22158C11.9979 9.6926 11.8054 10.1437 11.4646 10.4768C11.1238 10.8099 10.6621 10.9979 10.1801 11ZM9.40724 5.8672H8.53284C8.48265 5.8672 8.43449 5.84778 8.39891 5.81319C8.36332 5.7786 8.34319 5.73165 8.34293 5.68261V5.20922H3.65708V5.68261C3.65681 5.73165 3.63668 5.7786 3.60109 5.81319C3.56551 5.84778 3.51736 5.8672 3.46716 5.8672H2.59276C2.54309 5.86642 2.49572 5.84666 2.46079 5.81215C2.42586 5.77765 2.40615 5.73114 2.40589 5.68261V5.20922H0.914015V9.22158C0.916135 9.45572 1.01226 9.67968 1.18169 9.84525C1.35112 10.0108 1.58031 10.1047 1.81991 10.1068H10.1801C10.4197 10.1047 10.6489 10.0108 10.8183 9.84525C10.9877 9.67968 11.0839 9.45572 11.086 9.22158V5.20922H9.59716V5.68261C9.59689 5.73165 9.57676 5.7786 9.54118 5.81319C9.50559 5.84778 9.45744 5.8672 9.40724 5.8672ZM0.914015 4.42818H11.086V3.34148C11.0836 3.10752 10.9874 2.88381 10.818 2.71845C10.6486 2.5531 10.4195 2.4593 10.1801 2.45724H1.81991C1.58048 2.4593 1.35144 2.5531 1.18204 2.71845C1.01264 2.88381 0.9164 3.10752 0.914015 3.34148V4.42818ZM4.53047 1.56604H7.46953V0.884248C7.46969 0.880083 7.46894 0.875933 7.46735 0.872067C7.46575 0.868201 7.46335 0.864704 7.46028 0.861804C7.45722 0.858904 7.45357 0.856665 7.44956 0.855231C7.44556 0.853798 7.44129 0.853203 7.43703 0.853483H4.56297C4.55871 0.853203 4.55444 0.853798 4.55044 0.855231C4.54643 0.856665 4.54278 0.858904 4.53972 0.861804C4.53665 0.864704 4.53425 0.868201 4.53265 0.872067C4.53106 0.875933 4.53032 0.880083 4.53047 0.884248V1.56406V1.56604Z" fill="#999999"/>
</svg>
