<svg width="13" height="18" viewBox="0 0 13 18" fill="none" xmlns="http://www.w3.org/2000/svg">
<path d="M2.16667 1.6875C2.02301 1.6875 1.88523 1.74676 1.78365 1.85225C1.68207 1.95774 1.625 2.10082 1.625 2.25V15.75C1.625 15.8992 1.68207 16.0423 1.78365 16.1477C1.88523 16.2532 2.02301 16.3125 2.16667 16.3125H4.875V13.5C4.875 13.2016 4.98914 12.9155 5.1923 12.7045C5.39547 12.4935 5.67102 12.375 5.95833 12.375H7.04167C7.32898 12.375 7.60453 12.4935 7.8077 12.7045C8.01086 12.9155 8.125 13.2016 8.125 13.5V16.3125H10.8333C10.977 16.3125 11.1148 16.2532 11.2164 16.1477C11.3179 16.0423 11.375 15.8992 11.375 15.75V2.25C11.375 2.10082 11.3179 1.95774 11.2164 1.85225C11.1148 1.74676 10.977 1.6875 10.8333 1.6875H2.16667ZM0 2.25C0.00053781 1.65343 0.228984 1.08146 0.635196 0.659627C1.04141 0.237791 1.5922 0.000558495 2.16667 0H10.8333C11.4078 0.000558495 11.9586 0.237791 12.3648 0.659627C12.771 1.08146 12.9995 1.65343 13 2.25V15.75C12.9995 16.3466 12.771 16.9185 12.3648 17.3404C11.9586 17.7622 11.4078 17.9994 10.8333 18H2.16667C1.5922 17.9994 1.04141 17.7622 0.635196 17.3404C0.228984 16.9185 0.00053781 16.3466 0 15.75V2.25ZM3.25 3.9375C3.25 3.78832 3.30707 3.64524 3.40865 3.53975C3.51023 3.43426 3.64801 3.375 3.79167 3.375H4.875C5.01866 3.375 5.15643 3.43426 5.25802 3.53975C5.3596 3.64524 5.41667 3.78832 5.41667 3.9375V5.0625C5.41667 5.21168 5.3596 5.35476 5.25802 5.46025C5.15643 5.56574 5.01866 5.625 4.875 5.625H3.79167C3.64801 5.625 3.51023 5.56574 3.40865 5.46025C3.30707 5.35476 3.25 5.21168 3.25 5.0625V3.9375ZM8.125 3.375H9.20833C9.35199 3.375 9.48977 3.43426 9.59135 3.53975C9.69293 3.64524 9.75 3.78832 9.75 3.9375V5.0625C9.75 5.21168 9.69293 5.35476 9.59135 5.46025C9.48977 5.56574 9.35199 5.625 9.20833 5.625H8.125C7.98134 5.625 7.84357 5.56574 7.74198 5.46025C7.6404 5.35476 7.58333 5.21168 7.58333 5.0625V3.9375C7.58333 3.78832 7.6404 3.64524 7.74198 3.53975C7.84357 3.43426 7.98134 3.375 8.125 3.375ZM3.25 8.4375C3.25 8.28832 3.30707 8.14524 3.40865 8.03975C3.51023 7.93426 3.64801 7.875 3.79167 7.875H4.875C5.01866 7.875 5.15643 7.93426 5.25802 8.03975C5.3596 8.14524 5.41667 8.28832 5.41667 8.4375V9.5625C5.41667 9.71168 5.3596 9.85476 5.25802 9.96025C5.15643 10.0657 5.01866 10.125 4.875 10.125H3.79167C3.64801 10.125 3.51023 10.0657 3.40865 9.96025C3.30707 9.85476 3.25 9.71168 3.25 9.5625V8.4375ZM8.125 7.875H9.20833C9.35199 7.875 9.48977 7.93426 9.59135 8.03975C9.69293 8.14524 9.75 8.28832 9.75 8.4375V9.5625C9.75 9.71168 9.69293 9.85476 9.59135 9.96025C9.48977 10.0657 9.35199 10.125 9.20833 10.125H8.125C7.98134 10.125 7.84357 10.0657 7.74198 9.96025C7.6404 9.85476 7.58333 9.71168 7.58333 9.5625V8.4375C7.58333 8.28832 7.6404 8.14524 7.74198 8.03975C7.84357 7.93426 7.98134 7.875 8.125 7.875Z" fill="url(#paint0_linear_248_646)"/>
<defs>
<linearGradient id="paint0_linear_248_646" x1="6.5" y1="0" x2="6.5" y2="18" gradientUnits="userSpaceOnUse">
<stop stop-color="#3D99D5"/>
<stop offset="1" stop-color="#00AE6A"/>
</linearGradient>
</defs>
</svg>
