<svg width="12" height="16" viewBox="0 0 12 16" fill="none" xmlns="http://www.w3.org/2000/svg">
<path d="M2 1.5C1.86739 1.5 1.74021 1.55268 1.64645 1.64645C1.55268 1.74021 1.5 1.86739 1.5 2V14C1.5 14.1326 1.55268 14.2598 1.64645 14.3536C1.74021 14.4473 1.86739 14.5 2 14.5H4.5V12C4.5 11.7348 4.60536 11.4804 4.79289 11.2929C4.98043 11.1054 5.23478 11 5.5 11H6.5C6.76522 11 7.01957 11.1054 7.20711 11.2929C7.39464 11.4804 7.5 11.7348 7.5 12V14.5H10C10.1326 14.5 10.2598 14.4473 10.3536 14.3536C10.4473 14.2598 10.5 14.1326 10.5 14V2C10.5 1.86739 10.4473 1.74021 10.3536 1.64645C10.2598 1.55268 10.1326 1.5 10 1.5H2ZM0 2C0.00049644 1.46972 0.21137 0.9613 0.586335 0.586335C0.9613 0.21137 1.46972 0.00049644 2 0H10C10.5303 0.00049644 11.0387 0.21137 11.4137 0.586335C11.7886 0.9613 11.9995 1.46972 12 2V14C11.9995 14.5303 11.7886 15.0387 11.4137 15.4137C11.0387 15.7886 10.5303 15.9995 10 16H2C1.46972 15.9995 0.9613 15.7886 0.586335 15.4137C0.21137 15.0387 0.00049644 14.5303 0 14V2ZM3 3.5C3 3.36739 3.05268 3.24021 3.14645 3.14645C3.24021 3.05268 3.36739 3 3.5 3H4.5C4.63261 3 4.75979 3.05268 4.85355 3.14645C4.94732 3.24021 5 3.36739 5 3.5V4.5C5 4.63261 4.94732 4.75979 4.85355 4.85355C4.75979 4.94732 4.63261 5 4.5 5H3.5C3.36739 5 3.24021 4.94732 3.14645 4.85355C3.05268 4.75979 3 4.63261 3 4.5V3.5ZM7.5 3H8.5C8.63261 3 8.75979 3.05268 8.85355 3.14645C8.94732 3.24021 9 3.36739 9 3.5V4.5C9 4.63261 8.94732 4.75979 8.85355 4.85355C8.75979 4.94732 8.63261 5 8.5 5H7.5C7.36739 5 7.24021 4.94732 7.14645 4.85355C7.05268 4.75979 7 4.63261 7 4.5V3.5C7 3.36739 7.05268 3.24021 7.14645 3.14645C7.24021 3.05268 7.36739 3 7.5 3ZM3 7.5C3 7.36739 3.05268 7.24021 3.14645 7.14645C3.24021 7.05268 3.36739 7 3.5 7H4.5C4.63261 7 4.75979 7.05268 4.85355 7.14645C4.94732 7.24021 5 7.36739 5 7.5V8.5C5 8.63261 4.94732 8.75979 4.85355 8.85355C4.75979 8.94732 4.63261 9 4.5 9H3.5C3.36739 9 3.24021 8.94732 3.14645 8.85355C3.05268 8.75979 3 8.63261 3 8.5V7.5ZM7.5 7H8.5C8.63261 7 8.75979 7.05268 8.85355 7.14645C8.94732 7.24021 9 7.36739 9 7.5V8.5C9 8.63261 8.94732 8.75979 8.85355 8.85355C8.75979 8.94732 8.63261 9 8.5 9H7.5C7.36739 9 7.24021 8.94732 7.14645 8.85355C7.05268 8.75979 7 8.63261 7 8.5V7.5C7 7.36739 7.05268 7.24021 7.14645 7.14645C7.24021 7.05268 7.36739 7 7.5 7Z" fill="#999999"/>
</svg>
