<svg width="11" height="12" viewBox="0 0 11 12" fill="none" xmlns="http://www.w3.org/2000/svg">
<path d="M2.94643 1.88461e-06C3.02387 -0.00019598 3.10058 0.0151883 3.17217 0.0452711C3.24375 0.0753538 3.30879 0.119542 3.36355 0.175297C3.41831 0.231051 3.46171 0.297273 3.49125 0.370158C3.5208 0.443043 3.53591 0.521153 3.53571 0.600002V1.6H7.46429V0.600002C7.46429 0.440872 7.52637 0.28826 7.63688 0.175738C7.7474 0.0632159 7.89728 1.88461e-06 8.05357 1.88461e-06C8.20986 1.88461e-06 8.35975 0.0632159 8.47026 0.175738C8.58077 0.28826 8.64286 0.440872 8.64286 0.600002V1.6H9.42857C9.84522 1.6004 10.2447 1.7691 10.5393 2.06907C10.8339 2.36904 10.9996 2.77578 11 3.2V10.4C10.9996 10.8242 10.8339 11.231 10.5393 11.5309C10.2447 11.8309 9.84522 11.9996 9.42857 12H1.57143C1.15478 11.9996 0.755307 11.8309 0.460692 11.5309C0.166076 11.231 0.00039006 10.8242 0 10.4V3.2C0.00039006 2.77578 0.166076 2.36904 0.460692 2.06907C0.755307 1.7691 1.15478 1.6004 1.57143 1.6H2.35714V0.600002C2.35695 0.521153 2.37206 0.443043 2.4016 0.370158C2.43115 0.297273 2.47455 0.231051 2.52931 0.175297C2.58407 0.119542 2.64911 0.0753538 2.72069 0.0452711C2.79227 0.0151883 2.86899 -0.00019598 2.94643 1.88461e-06ZM2.94643 2.8H1.57143C1.46724 2.8 1.36731 2.84214 1.29364 2.91716C1.21996 2.99217 1.17857 3.09391 1.17857 3.2V4.4H9.82143V3.2C9.82143 3.09391 9.78004 2.99217 9.70636 2.91716C9.63269 2.84214 9.53276 2.8 9.42857 2.8H2.94643ZM1.17857 5.6V10.4C1.17857 10.5061 1.21996 10.6078 1.29364 10.6828C1.36731 10.7579 1.46724 10.8 1.57143 10.8H9.42857C9.53276 10.8 9.63269 10.7579 9.70636 10.6828C9.78004 10.6078 9.82143 10.5061 9.82143 10.4V5.6H1.17857Z" fill="#999999"/>
</svg>
