<svg width="29" height="25" viewBox="0 0 29 25" fill="none" xmlns="http://www.w3.org/2000/svg">
<path d="M7.63031 3.55042L8.20244 1.81959C8.37684 1.28935 8.71263 0.828072 9.16203 0.501388C9.61142 0.174705 10.1515 -0.000744105 10.7055 2.37215e-06H17.4611C18.0151 -0.000744105 18.5552 0.174705 19.0046 0.501388C19.454 0.828072 19.7898 1.28935 19.9642 1.81959L20.5364 3.55042H24.6458C25.5793 3.5513 26.4744 3.92565 27.1345 4.59129C27.7946 5.25693 28.1658 6.15948 28.1667 7.10084V21.3025C28.1658 22.2439 27.7946 23.1464 27.1345 23.8121C26.4744 24.4777 25.5793 24.8521 24.6458 24.8529H3.52083C2.58732 24.8521 1.69229 24.4777 1.03219 23.8121C0.372098 23.1464 0.000873942 22.2439 0 21.3025V7.10084C0.000873942 6.15948 0.372098 5.25693 1.03219 4.59129C1.69229 3.92565 2.58732 3.5513 3.52083 3.55042H7.63031ZM5.28125 15.1947C5.28041 15.4113 5.35875 15.6207 5.5013 15.7827L8.14193 18.7784C8.22412 18.8726 8.32526 18.948 8.43861 18.9996C8.55197 19.0513 8.67494 19.078 8.79933 19.078C8.92373 19.078 9.0467 19.0513 9.16005 18.9996C9.27341 18.948 9.37455 18.8726 9.45674 18.7784L12.0974 15.7827C12.2399 15.6207 12.3183 15.4113 12.3174 15.1947V15.0893C12.3174 14.8539 12.2247 14.6281 12.0596 14.4617C11.8945 14.2952 11.6707 14.2017 11.4372 14.2017H10.1169C10.1169 13.1423 10.5342 12.1264 11.277 11.3773C12.0198 10.6283 13.0273 10.2075 14.0778 10.2075C14.3159 10.2071 14.5535 10.2294 14.7875 10.274L16.7075 8.09385C15.7028 7.65479 14.6056 7.4745 13.5147 7.5692C12.4237 7.6639 11.3733 8.03062 10.4578 8.63636C9.54227 9.2421 8.79048 10.0679 8.27003 11.0393C7.74959 12.0108 7.47682 13.0975 7.47627 14.2017H6.15596C5.92251 14.2017 5.69863 14.2952 5.53356 14.4617C5.36848 14.6281 5.27575 14.8539 5.27575 15.0893V15.1947H5.28125ZM16.0638 12.6151C15.9212 12.7772 15.8429 12.9865 15.8438 13.2031V13.3085C15.8438 13.5439 15.9365 13.7697 16.1016 13.9362C16.2666 14.1026 16.4905 14.1961 16.724 14.1961H18.0443C18.0443 15.2555 17.627 16.2714 16.8841 17.0205C16.1413 17.7695 15.1338 18.1904 14.0833 18.1904C13.8452 18.1907 13.6076 18.1684 13.3737 18.1238L11.4537 20.304C12.4584 20.743 13.5556 20.9233 14.6465 20.8286C15.7374 20.7339 16.7879 20.3672 17.7034 19.7615C18.6189 19.1557 19.3707 18.33 19.8911 17.3585C20.4116 16.387 20.6843 15.3003 20.6849 14.1961H22.0052C22.2387 14.1961 22.4625 14.1026 22.6276 13.9362C22.7927 13.7697 22.8854 13.5439 22.8854 13.3085V13.2031C22.8863 12.9865 22.8079 12.7772 22.6654 12.6151L20.0247 9.61942C19.9425 9.52526 19.8414 9.44984 19.7281 9.39817C19.6147 9.34651 19.4917 9.31979 19.3673 9.31979C19.2429 9.31979 19.12 9.34651 19.0066 9.39817C18.8933 9.44984 18.7921 9.52526 18.7099 9.61942L16.0693 12.6151H16.0638Z" fill="white"/>
</svg>
