<svg width="29" height="26" viewBox="0 0 29 26" fill="none" xmlns="http://www.w3.org/2000/svg">
<path d="M8.38272 1.84409L7.798 3.59822H3.59821C2.64418 3.59911 1.72948 3.97849 1.05488 4.6531C0.380276 5.3277 0.000893149 6.2424 0 7.19643V21.5893C0.000893149 22.5433 0.380276 23.458 1.05488 24.1326C1.72948 24.8072 2.64418 25.1866 3.59821 25.1875H25.1875C26.1415 25.1866 27.0562 24.8072 27.7308 24.1326C28.4054 23.458 28.7848 22.5433 28.7857 21.5893V7.19643C28.7848 6.2424 28.4054 5.3277 27.7308 4.6531C27.0562 3.97849 26.1415 3.59911 25.1875 3.59822H20.9877L20.403 1.84409C20.2248 1.30671 19.8816 0.839219 19.4223 0.508138C18.963 0.177057 18.4111 -0.000754122 17.8449 2.40409e-06H10.9408C10.3747 -0.000754122 9.82266 0.177057 9.36339 0.508138C8.90412 0.839219 8.56095 1.30671 8.38272 1.84409ZM14.3929 8.99554C15.4603 8.99554 16.5039 9.31209 17.3914 9.90515C18.279 10.4982 18.9708 11.3412 19.3793 12.3274C19.7878 13.3136 19.8947 14.3988 19.6865 15.4458C19.4782 16.4928 18.9642 17.4545 18.2093 18.2093C17.4545 18.9642 16.4928 19.4782 15.4458 19.6865C14.3988 19.8947 13.3136 19.7878 12.3274 19.3793C11.3412 18.9708 10.4982 18.279 9.90515 17.3914C9.31208 16.5039 8.99553 15.4603 8.99553 14.3929C8.99553 12.9614 9.56418 11.5886 10.5764 10.5764C11.5886 9.56418 12.9614 8.99554 14.3929 8.99554Z" fill="white"/>
</svg>
