<svg width="11" height="12" viewBox="0 0 11 12" fill="none" xmlns="http://www.w3.org/2000/svg">
<path d="M10.8573 10.1007C10.3991 9.03851 9.29076 8.5946 8.16677 8.27635C7.8257 8.19703 7.50928 8.03047 7.24643 7.79189C7.15951 7.69991 7.09132 7.59079 7.04591 7.47101C7.0005 7.35123 6.97879 7.22323 6.98208 7.09459C6.98208 6.79054 7.1779 6.52905 7.3228 6.28378C7.41155 6.1292 7.48754 5.96714 7.54995 5.79932C7.57018 5.74524 7.58654 5.68968 7.5989 5.63311C7.61259 5.5326 7.6488 5.43681 7.70464 5.35338C7.75206 5.2945 7.80521 5.24084 7.86326 5.19324L7.90438 5.15676C7.92396 5.13851 7.9455 5.12027 7.96704 5.09797L8.09236 4.94595C8.17714 4.80592 8.22756 4.64657 8.23923 4.48176L8.25685 4.35203V4.32162C8.2686 4.23649 8.2823 4.15135 8.28622 4.06824C8.28976 4.00073 8.28976 3.93306 8.28622 3.86554C8.29346 3.77563 8.27619 3.68542 8.23638 3.60516C8.19658 3.5249 8.13583 3.4578 8.06103 3.41149L7.8848 3.32432L7.91025 3.06486C7.9168 2.96984 7.93121 2.87558 7.95333 2.78311C8.00948 2.54731 8.04228 2.3062 8.05124 2.06351C8.0684 1.71487 7.98963 1.36834 7.82409 1.06419C7.64363 0.743673 7.3693 0.490934 7.04082 0.342568L6.81759 0.249325C6.38845 0.0865426 5.93525 0.00217974 5.4782 0C5.37246 0 5.28238 0 5.18448 0C4.85379 0.00334326 4.52677 0.0721476 4.22105 0.202703C4.19628 0.214495 4.17267 0.228752 4.15056 0.24527C4.03653 0.317316 3.93899 0.414143 3.86467 0.529054L3.80396 0.620271C3.77084 0.683224 3.72629 0.738972 3.67277 0.78446C3.59079 0.854026 3.50065 0.912597 3.4045 0.958784C3.29682 1.00046 3.20626 1.07918 3.14798 1.18176C3.04625 1.38538 2.9932 1.6113 2.99328 1.84054C2.98394 2.10625 2.99048 2.37229 3.01286 2.63716C3.01947 2.73619 3.03388 2.83448 3.05594 2.93108C3.06573 2.98176 3.07356 3.03041 3.08336 3.08108L3.12448 3.31824L2.90125 3.39324C2.82443 3.43019 2.76037 3.49059 2.71766 3.56631C2.67496 3.64204 2.65566 3.72948 2.66235 3.81689V3.85338C2.66235 3.93649 2.66235 3.9973 2.66235 4.07027C2.66235 4.14324 2.67606 4.22027 2.68585 4.29324L2.69955 4.38851C2.69955 4.42095 2.69955 4.45135 2.71326 4.48176C2.73063 4.63939 2.77858 4.79176 2.85425 4.92973C2.88517 4.98741 2.92336 5.04058 2.96782 5.08784C3.02484 5.15011 3.09091 5.20278 3.16364 5.24392L3.26547 5.3027L3.29288 5.42027C3.3726 5.75077 3.50496 6.06521 3.68452 6.35068L3.73934 6.44189L3.78242 6.48041C3.82089 6.52309 3.85562 6.56921 3.88621 6.61824L3.90383 6.64054C3.94462 6.70165 3.97324 6.77056 3.98803 6.84324C4.04286 7.15541 4.16623 7.88514 2.83075 8.26216C1.84187 8.54797 0.574936 9.09527 0.140221 10.0865C0.0390548 10.3471 -0.0083036 10.6267 0.001191 10.9074V11.6351C0.00170847 11.7321 0.0392783 11.8249 0.105691 11.8933C0.172103 11.9616 0.261958 12 0.35562 12H10.6439C10.7375 12 10.8274 11.9616 10.8938 11.8933C10.9602 11.8249 10.9978 11.7321 10.9983 11.6351V10.9318C11.0099 10.6474 10.9618 10.3639 10.8573 10.1007Z" fill="url(#paint0_linear_158_1393)"/>
<defs>
<linearGradient id="paint0_linear_158_1393" x1="5.5" y1="0" x2="5.5" y2="12" gradientUnits="userSpaceOnUse">
<stop stop-color="#3D99D5"/>
<stop offset="1" stop-color="#00AE6A"/>
</linearGradient>
</defs>
</svg>
