<svg width="9" height="7" viewBox="0 0 9 7" fill="none" xmlns="http://www.w3.org/2000/svg">
<path d="M2.45863 6.81776C2.49064 6.87096 2.53563 6.91613 2.58984 6.94947C2.64406 6.98282 2.70591 7.00338 2.77024 7.00943H2.80463C2.86209 7.00937 2.91887 6.99771 2.9712 6.97523C3.02353 6.95276 3.07021 6.91999 3.10814 6.87909L8.90108 0.636215C8.93892 0.598893 8.9684 0.554699 8.98772 0.506298C9.00705 0.457896 9.01584 0.406286 9.01355 0.354583C9.01126 0.302879 8.99793 0.25215 8.97439 0.205453C8.95085 0.158756 8.91757 0.117058 8.87656 0.0828713C8.83555 0.0486843 8.78766 0.0227157 8.73578 0.00653267C8.68389 -0.00965035 8.62908 -0.0157151 8.57465 -0.0112936C8.52022 -0.00687214 8.4673 0.00794321 8.41908 0.0322587C8.37086 0.0565742 8.32833 0.0898886 8.29406 0.130191L2.86533 5.97438L0.752924 2.7159C0.725588 2.67215 0.689337 2.63399 0.646284 2.60363C0.603231 2.57328 0.554232 2.55134 0.502144 2.53909C0.450056 2.52685 0.39592 2.52454 0.342882 2.5323C0.289843 2.54007 0.238966 2.55775 0.193209 2.58431C0.147452 2.61088 0.10773 2.6458 0.0763557 2.68705C0.0449814 2.7283 0.0225796 2.77505 0.0104575 2.82457C-0.00166454 2.8741 -0.00326542 2.92541 0.00574611 2.97553C0.0147576 3.02565 0.0342036 3.07357 0.0629501 3.1165L2.45863 6.81776Z" fill="#3D99D5"/>
</svg>
