<svg width="98" height="100" viewBox="0 0 98 100" fill="none" xmlns="http://www.w3.org/2000/svg">
<path d="M36.8064 1.43818e-05C37.4111 -0.00149557 38.01 0.115906 38.5689 0.345475C39.1278 0.575043 39.6356 0.912252 40.0631 1.33773C40.4906 1.7632 40.8294 2.26856 41.0601 2.82476C41.2908 3.38096 41.4088 3.97704 41.4072 4.57875V16.7887C41.4072 18.0031 40.9225 19.1677 40.0597 20.0264C39.1969 20.885 38.0266 21.3674 36.8064 21.3674C35.5862 21.3674 34.416 20.885 33.5532 20.0264C32.6904 19.1677 32.2056 18.0031 32.2056 16.7887V4.57875C32.2041 3.97704 32.3221 3.38096 32.5528 2.82476C32.7834 2.26856 33.1223 1.7632 33.5498 1.33773C33.9773 0.912252 34.4851 0.575043 35.044 0.345475C35.6029 0.115906 36.2018 -0.00149557 36.8064 1.43818e-05ZM62.3601 3.81563C62.8651 4.1475 63.2992 4.57551 63.6374 5.07503C63.9756 5.57454 64.2111 6.13569 64.3305 6.72616C64.4499 7.31664 64.4507 7.92479 64.333 8.51559C64.2153 9.10639 63.9813 9.66818 63.6445 10.1686L57.5101 19.3261C56.8339 20.3381 55.7814 21.0412 54.5843 21.281C53.3871 21.5207 52.1433 21.2773 51.1264 20.6043C50.1096 19.9314 49.403 18.884 49.1622 17.6926C48.9213 16.5011 49.1659 15.2633 49.8421 14.2513L55.9765 5.09386C56.6519 4.08382 57.7026 3.38188 58.8977 3.14222C60.0928 2.90255 61.3347 3.14475 62.3505 3.81563H62.3601ZM72.271 25.7745C72.6993 26.1982 73.0392 26.7021 73.2712 27.257C73.5031 27.812 73.6226 28.4072 73.6226 29.0082C73.6226 29.6093 73.5031 30.2044 73.2712 30.7594C73.0392 31.3143 72.6993 31.8182 72.271 32.2419L54.4429 49.9845C53.8989 50.5473 53.5985 51.2999 53.6061 52.0807C53.6137 52.8615 53.9288 53.6082 54.4836 54.1603C55.0383 54.7124 55.7886 55.026 56.5732 55.0335C57.3577 55.0411 58.114 54.7421 58.6794 54.2008L81.1084 31.8795C81.9835 31.0903 83.1302 30.6663 84.3108 30.6952C85.4915 30.7241 86.6157 31.2038 87.4508 32.0349C88.2859 32.866 88.7679 33.9848 88.797 35.1598C88.8261 36.3348 88.4 37.4759 87.607 38.3469L65.1781 60.6683C64.6341 61.231 64.3337 61.9836 64.3413 62.7644C64.3489 63.5452 64.664 64.2919 65.2188 64.844C65.7736 65.3961 66.5238 65.7097 67.3084 65.7173C68.0929 65.7248 68.8492 65.4258 69.4146 64.8845L87.2428 47.1419C88.1179 46.3527 89.2646 45.9287 90.4452 45.9576C91.6259 45.9866 92.7501 46.4662 93.5852 47.2973C94.4203 48.1284 94.9023 49.2473 94.9314 50.4223C94.9605 51.5973 94.5344 52.7384 93.7414 53.6094L75.9133 71.352C75.3694 71.9147 75.0689 72.6673 75.0765 73.4481C75.0841 74.2289 75.3992 74.9756 75.954 75.5277C76.5088 76.0799 77.259 76.3934 78.0436 76.401C78.8282 76.4085 79.5844 76.1096 80.1499 75.5682L90.31 65.4569C91.1852 64.6677 92.3318 64.2436 93.5124 64.2726C94.6931 64.3015 95.8173 64.7812 96.6525 65.6123C97.4875 66.4434 97.9695 67.5622 97.9986 68.7372C98.0277 69.9122 97.6016 71.0533 96.8086 71.9243L77.7153 90.9261C73.3568 95.2607 67.8047 98.2118 61.7611 99.4062C55.7174 100.601 49.4535 99.9846 43.7616 97.6363C38.0696 95.2879 33.2052 91.3126 29.7834 86.213C26.3616 81.1133 24.536 75.1184 24.5376 68.9863V39.6824C24.5376 38.0632 25.1839 36.5104 26.3344 35.3655C27.4848 34.2206 29.0451 33.5774 30.672 33.5774C32.299 33.5774 33.8593 34.2206 35.0097 35.3655C36.1601 36.5104 36.8064 38.0632 36.8064 39.6824V47.1991C36.8064 49.9082 40.1037 51.2819 42.0399 49.355L65.7628 25.7554C66.1885 25.3291 66.6948 24.9908 67.2525 24.76C67.8101 24.5292 68.4081 24.4103 69.0121 24.4103C69.616 24.4103 70.214 24.5292 70.7717 24.76C71.3293 24.9908 71.8356 25.3291 72.2614 25.7554L72.271 25.7745ZM15.1251 95.6002C10.5134 92.8419 6.69696 88.9433 4.04666 84.2832C1.39637 79.6232 0.00232977 74.3601 0 69.0054V39.7015C0 38.0823 0.646301 36.5295 1.79673 35.3846C2.94715 34.2397 4.50746 33.5965 6.13441 33.5965C7.76135 33.5965 9.32166 34.2397 10.4721 35.3846C11.6225 36.5295 12.2688 38.0823 12.2688 39.7015V47.2182C12.2688 48.0278 12.592 48.8042 13.1672 49.3767C13.7424 49.9491 14.5225 50.2707 15.336 50.2707V68.9863C15.3335 74.9082 16.6479 80.7574 19.1851 86.1141C21.7222 91.4707 25.4191 96.2022 30.0107 99.9691C24.7515 99.7747 19.6273 98.2586 15.1156 95.562L15.1251 95.6002ZM17.6364 5.09386L23.7708 14.2513C24.447 15.2633 24.6916 16.5011 24.4507 17.6926C24.2099 18.884 23.5033 19.9314 22.4864 20.6043C21.4696 21.2773 20.2258 21.5207 19.0286 21.281C17.8315 21.0412 16.779 20.3381 16.1028 19.3261L9.96841 10.1686C9.63359 9.66755 9.40122 9.10575 9.28456 8.5153C9.1679 7.92486 9.16925 7.31733 9.28852 6.7274C9.40778 6.13746 9.64264 5.57669 9.97967 5.07709C10.3167 4.57749 10.7493 4.14884 11.2528 3.81563C11.7563 3.48241 12.3208 3.25116 12.9141 3.13506C13.5074 3.01896 14.1178 3.0203 14.7106 3.13899C15.3034 3.25769 15.8669 3.49142 16.3689 3.82683C16.8709 4.16225 17.3016 4.59278 17.6364 5.09386Z" fill="url(#paint0_linear_358_1705)"/>
<defs>
<linearGradient id="paint0_linear_358_1705" x1="49" y1="0" x2="49" y2="100" gradientUnits="userSpaceOnUse">
<stop stop-color="#3D99D5"/>
<stop offset="1" stop-color="#00AE6A"/>
</linearGradient>
</defs>
</svg>
