<svg width="150" height="150" viewBox="0 0 150 150" fill="none" xmlns="http://www.w3.org/2000/svg">
<circle cx="75" cy="75" r="75" fill="url(#paint0_linear_542_338)"/>
<path d="M52.276 111.871C52.6311 112.462 53.1302 112.964 53.7316 113.334C54.3331 113.704 55.0193 113.933 55.7329 114H56.1145C56.7519 113.999 57.3819 113.87 57.9624 113.62C58.543 113.37 59.0609 113.006 59.4816 112.552L123.748 43.2079C124.168 42.7934 124.495 42.3025 124.71 41.7648C124.924 41.2272 125.021 40.6539 124.996 40.0796C124.971 39.5053 124.823 38.9418 124.562 38.4231C124.3 37.9044 123.931 37.4413 123.476 37.0615C123.021 36.6818 122.49 36.3933 121.914 36.2136C121.339 36.0338 120.731 35.9665 120.127 36.0156C119.523 36.0647 118.936 36.2292 118.401 36.4993C117.866 36.7694 117.394 37.1395 117.014 37.5871L56.7879 102.503L33.3529 66.3085C33.0497 65.8225 32.6475 65.3986 32.1699 65.0615C31.6922 64.7243 31.1486 64.4806 30.5708 64.3446C29.9929 64.2086 29.3923 64.183 28.8039 64.2692C28.2155 64.3554 27.6511 64.5518 27.1435 64.8469C26.6358 65.142 26.1952 65.5299 25.8471 65.9881C25.499 66.4463 25.2505 66.9655 25.116 67.5156C24.9815 68.0658 24.9638 68.6357 25.0637 69.1924C25.1637 69.7491 25.3795 70.2814 25.6984 70.7583L52.276 111.871Z" fill="white"/>
<defs>
<linearGradient id="paint0_linear_542_338" x1="75" y1="0" x2="75" y2="150" gradientUnits="userSpaceOnUse">
<stop stop-color="#3D99D5"/>
<stop offset="1" stop-color="#00AE6A"/>
</linearGradient>
</defs>
</svg>
