<svg width="11" height="8" viewBox="0 0 11 8" fill="none" xmlns="http://www.w3.org/2000/svg">
<path d="M3.005 7.79207C3.04411 7.85288 3.0991 7.90449 3.16536 7.94261C3.23162 7.98072 3.30723 8.00422 3.38584 8.01113H3.42788C3.49811 8.01105 3.56751 7.99773 3.63147 7.97204C3.69543 7.94636 3.75248 7.9089 3.79883 7.86217L10.8791 0.727451C10.9253 0.684798 10.9614 0.634291 10.985 0.578975C11.0086 0.523659 11.0194 0.464676 11.0166 0.405586C11.0138 0.346496 10.9975 0.288521 10.9687 0.235152C10.9399 0.181784 10.8993 0.13413 10.8491 0.0950589C10.799 0.055988 10.7405 0.0263096 10.6771 0.00781468C10.6136 -0.0106802 10.5467 -0.0176113 10.4801 -0.0125582C10.4136 -0.0075051 10.3489 0.00942673 10.29 0.0372158C10.231 0.065005 10.1791 0.103079 10.1372 0.149138L3.50208 6.82822L0.92024 3.10423C0.886829 3.05423 0.842523 3.01062 0.789902 2.97593C0.737282 2.94124 0.677394 2.91617 0.613731 2.90217C0.550069 2.88818 0.483902 2.88554 0.419078 2.89441C0.354253 2.90328 0.29207 2.92349 0.236144 2.95385C0.180219 2.98421 0.13167 3.02413 0.0933237 3.07126C0.0549773 3.1184 0.0275973 3.17183 0.0127814 3.22843C-0.00203444 3.28503 -0.00399107 3.34368 0.00702302 3.40095C0.0180371 3.45823 0.0418044 3.513 0.076939 3.56206L3.005 7.79207Z" fill="url(#paint0_linear_158_1400)"/>
<defs>
<linearGradient id="paint0_linear_158_1400" x1="5.5085" y1="-0.0141602" x2="5.5085" y2="8.01113" gradientUnits="userSpaceOnUse">
<stop stop-color="#3D99D5"/>
<stop offset="1" stop-color="#00AE6A"/>
</linearGradient>
</defs>
</svg>
