<svg width="21" height="16" viewBox="0 0 21 16" fill="none" xmlns="http://www.w3.org/2000/svg">
<path d="M5.61244 9.52632C6.28263 9.52589 6.9428 9.36523 7.53677 9.05801C8.13073 8.75079 8.64091 8.30611 9.02387 7.76181C8.78745 7.36336 8.60153 6.9376 8.4703 6.49415C8.21975 7.14048 7.75314 7.68244 7.14811 8.02986C6.54308 8.37729 5.83609 8.50924 5.14475 8.40378C4.45341 8.29831 3.8194 7.96178 3.34817 7.45017C2.87695 6.93855 2.59692 6.2827 2.55467 5.5917C2.51243 4.9007 2.7105 4.21622 3.11596 3.65211C3.52141 3.088 4.1098 2.67827 4.78324 2.49108C5.45669 2.30388 6.1746 2.35051 6.81754 2.62321C7.46049 2.8959 7.98972 3.37823 8.31719 3.98994C8.39317 3.53443 8.52568 3.08994 8.71171 2.66655C8.32228 2.23405 7.84482 1.88793 7.31069 1.65093C6.77655 1.41392 6.19781 1.29138 5.61244 1.29135C3.31833 1.29135 1.45215 3.13989 1.45215 5.40856C1.45215 7.67722 3.31833 9.52632 5.61244 9.52632Z" fill="url(#paint0_linear_358_1636)"/>
<path d="M8.88731 11.3014C8.99259 11.2297 9.10042 11.1613 9.21051 11.0944C8.20525 10.5006 6.94245 10.1766 5.61285 10.1766C4.15024 10.1766 2.76829 10.5687 1.72143 11.2804C0.611449 12.0366 0.000141516 13.0592 0.000141516 14.1633C-0.00152002 14.2357 0.0114639 14.3078 0.0383307 14.3752C0.0651975 14.4426 0.105406 14.504 0.156593 14.5558C0.207781 14.6076 0.268915 14.6488 0.336407 14.6769C0.403898 14.705 0.476386 14.7195 0.549611 14.7195C0.622837 14.7195 0.695324 14.705 0.762815 14.6769C0.830307 14.6488 0.891442 14.6076 0.942629 14.5558C0.993817 14.504 1.03402 14.4426 1.06089 14.3752C1.08776 14.3078 1.10074 14.2357 1.09908 14.1633C1.09908 13.4283 1.54115 12.7228 2.34434 12.1769C3.20979 11.5887 4.37099 11.2641 5.61342 11.2641C6.56576 11.2641 7.47026 11.4549 8.23072 11.8089C8.43879 11.6265 8.65807 11.457 8.88731 11.3014Z" fill="url(#paint1_linear_358_1636)"/>
<path d="M9.64102 7.33709C9.70158 7.44222 9.76592 7.54491 9.83403 7.64518C10.2873 8.31454 10.9001 8.86312 11.6184 9.24246C12.3367 9.62181 13.1384 9.82025 13.9526 9.82025C14.7668 9.82025 15.5684 9.62181 16.2867 9.24246C17.005 8.86312 17.6179 8.31454 18.0711 7.64518C18.1394 7.54491 18.2039 7.44222 18.2644 7.33709C18.3305 7.22263 18.3919 7.10528 18.4487 6.98503C18.9808 5.85654 19.0596 4.5701 18.6691 3.38626C18.6272 3.26003 18.5806 3.13614 18.5293 3.01459C18.4818 2.90255 18.4304 2.79295 18.3751 2.68577C17.9603 1.87769 17.3276 1.19903 16.547 0.724976C15.7664 0.250926 14.8684 0 13.9526 0C13.0367 0 12.1388 0.250926 11.3582 0.724976C10.5776 1.19903 9.94485 1.87769 9.53008 2.68577C9.4748 2.79332 9.42338 2.90293 9.37584 3.01459C9.32433 3.13614 9.27773 3.26003 9.23603 3.38626C8.84551 4.57011 8.92442 5.85662 9.45678 6.98503C9.51338 7.10528 9.57479 7.22263 9.64102 7.33709ZM13.9527 1.29712C15.8393 1.29712 17.3964 2.72078 17.5843 4.53963C17.6251 4.93083 17.6011 5.32598 17.5133 5.70954C17.1454 7.31833 15.6882 8.52324 13.9527 8.52324C12.2173 8.52324 10.7606 7.31889 10.3919 5.70954C10.3319 5.44723 10.3017 5.17912 10.3019 4.91018C10.3019 4.78634 10.3082 4.66257 10.3208 4.53935C10.509 2.72078 12.0659 1.29712 13.9527 1.29712Z" fill="url(#paint2_linear_358_1636)"/>
<path d="M19.2322 12.4133C19.1535 12.3418 19.0716 12.2718 18.9863 12.2035C18.8619 12.1034 18.7312 12.0066 18.594 11.913C18.4098 11.7881 18.2193 11.6724 18.0232 11.5666C17.925 11.5134 17.8251 11.4618 17.7232 11.4128C17.6213 11.3638 17.5177 11.317 17.4119 11.2728C16.3794 10.8328 15.1902 10.5969 13.9526 10.5969C12.715 10.5969 11.5269 10.8325 10.4948 11.2722C10.3895 11.317 10.2857 11.3637 10.1834 11.4123C10.0813 11.4613 9.98137 11.5128 9.88288 11.566C9.68657 11.672 9.49586 11.7878 9.31148 11.913C9.17394 12.0064 9.043 12.1033 8.91866 12.2038C8.83376 12.2721 8.75187 12.3419 8.673 12.4133C8.59291 12.4858 8.51565 12.5595 8.44207 12.6348C7.67255 13.4216 7.25879 14.359 7.25879 15.3516C7.25879 15.5236 7.32782 15.6885 7.45069 15.8101C7.57355 15.9317 7.7402 16 7.91396 16C8.08773 16 8.25437 15.9317 8.37724 15.8101C8.50011 15.6885 8.56914 15.5236 8.56914 15.3516C8.56914 14.475 9.09639 13.6336 10.0535 12.9827C11.0857 12.2808 12.4702 11.8943 13.952 11.8943C15.4339 11.8943 16.8181 12.2808 17.8503 12.9827C18.8074 13.6336 19.3347 14.475 19.3347 15.3516C19.3382 15.5213 19.4088 15.6828 19.5313 15.8016C19.6539 15.9203 19.8185 15.9868 19.99 15.9868C20.1615 15.9868 20.3261 15.9203 20.4486 15.8016C20.5711 15.6828 20.6417 15.5213 20.6453 15.3516C20.6453 14.3598 20.2315 13.4224 19.4617 12.6348C19.3882 12.5586 19.3109 12.485 19.2322 12.4133Z" fill="url(#paint3_linear_358_1636)"/>
<defs>
<linearGradient id="paint0_linear_358_1636" x1="1.45215" y1="5.40884" x2="9.02387" y2="5.40884" gradientUnits="userSpaceOnUse">
<stop stop-color="#3D99D5"/>
<stop offset="1" stop-color="#00AE6A"/>
</linearGradient>
<linearGradient id="paint1_linear_358_1636" x1="0" y1="12.448" x2="9.21051" y2="12.448" gradientUnits="userSpaceOnUse">
<stop stop-color="#3D99D5"/>
<stop offset="1" stop-color="#00AE6A"/>
</linearGradient>
<linearGradient id="paint2_linear_358_1636" x1="8.99121" y1="4.91012" x2="18.9139" y2="4.91012" gradientUnits="userSpaceOnUse">
<stop stop-color="#3D99D5"/>
<stop offset="1" stop-color="#00AE6A"/>
</linearGradient>
<linearGradient id="paint3_linear_358_1636" x1="7.25879" y1="13.2985" x2="20.6453" y2="13.2985" gradientUnits="userSpaceOnUse">
<stop stop-color="#3D99D5"/>
<stop offset="1" stop-color="#00AE6A"/>
</linearGradient>
</defs>
</svg>
