<svg width="31" height="18" viewBox="0 0 31 18" fill="none" xmlns="http://www.w3.org/2000/svg">
<g clip-path="url(#clip0_158_1587)">
<path d="M24.7649 2.67685C25.3845 2.677 25.9923 2.84678 26.5227 3.16786C27.053 3.48894 27.4858 3.94913 27.7743 4.49873C28.0628 5.04834 28.196 5.66648 28.1595 6.28642C28.1231 6.90636 27.9184 7.50455 27.5675 8.01639C27.2166 8.52824 26.7329 8.93429 26.1686 9.19072C25.6042 9.44715 24.9807 9.54421 24.3654 9.47142C23.7501 9.39863 23.1662 9.15875 22.677 8.77769C22.1877 8.39663 21.8116 7.88886 21.5893 7.30921C21.4435 7.8081 21.2371 8.28712 20.9746 8.73547C21.4 9.34803 21.9668 9.84846 22.6267 10.1941C23.2867 10.5398 24.0202 10.7205 24.7649 10.7208C27.3135 10.7208 29.3868 8.6425 29.3868 6.08841C29.3868 3.53431 27.3135 1.45606 24.7649 1.45606C24.1147 1.45565 23.4719 1.59301 22.8784 1.85912C22.285 2.12523 21.7544 2.51409 21.3214 3.00017C21.5283 3.47743 21.6755 3.9785 21.7597 4.49198C22.049 3.94447 22.4816 3.48625 23.011 3.16647C23.5404 2.84669 24.1467 2.67743 24.7649 2.67685Z" fill="white"/>
<path d="M29.0879 12.6916C27.9246 11.8909 26.3893 11.4497 24.7647 11.4497C23.287 11.4497 21.8844 11.8143 20.7676 12.4824C20.8899 12.5574 21.0097 12.6346 21.1266 12.7153C21.3815 12.8903 21.6254 13.081 21.8567 13.2863C22.7015 12.8879 23.7064 12.6743 24.7647 12.6743C26.145 12.6743 27.4347 13.0389 28.3965 13.7013C29.2882 14.3155 29.7799 15.1093 29.7799 15.9362C29.7781 16.0177 29.7925 16.0987 29.8224 16.1746C29.8522 16.2504 29.8969 16.3195 29.9538 16.3778C30.0106 16.4361 30.0785 16.4825 30.1535 16.5141C30.2285 16.5457 30.309 16.562 30.3904 16.562C30.4717 16.562 30.5523 16.5457 30.6272 16.5141C30.7022 16.4825 30.7701 16.4361 30.827 16.3778C30.8839 16.3195 30.9285 16.2504 30.9584 16.1746C30.9882 16.0987 31.0027 16.0177 31.0008 15.9362C31.0002 14.693 30.3211 13.5409 29.0879 12.6916Z" fill="white"/>
<path d="M6.23517 10.718C6.97973 10.7175 7.71315 10.5367 8.37302 10.1911C9.03288 9.84541 9.59966 9.34508 10.0251 8.73268C9.76247 8.28437 9.55591 7.80535 9.41013 7.30642C9.13177 8.03362 8.6134 8.64338 7.94124 9.03428C7.26907 9.42517 6.48364 9.57364 5.7156 9.45497C4.94755 9.33631 4.24319 8.95767 3.71968 8.38205C3.19617 7.80642 2.88507 7.0685 2.83814 6.29105C2.7912 5.51359 3.01126 4.74346 3.4617 4.10877C3.91214 3.47408 4.56581 3.01308 5.31398 2.80247C6.06214 2.59186 6.85971 2.64432 7.57399 2.95114C8.28827 3.25795 8.87622 3.80062 9.24003 4.48888C9.32444 3.97637 9.47165 3.47626 9.67832 2.99991C9.24568 2.51328 8.71525 2.12386 8.12185 1.8572C7.52845 1.59054 6.88549 1.45267 6.23517 1.45264C3.68653 1.45264 1.61328 3.53247 1.61328 6.08499C1.61328 8.63751 3.68653 10.718 6.23517 10.718Z" fill="white"/>
<path d="M9.8734 12.7153C9.99036 12.6346 10.1102 12.5577 10.2325 12.4824C9.11566 11.8143 7.71274 11.4497 6.23562 11.4497C4.61073 11.4497 3.07544 11.8909 1.91243 12.6916C0.679292 13.5425 0.000157218 14.693 0.000157218 15.9352C-0.00168867 16.0167 0.0127359 16.0978 0.0425837 16.1736C0.0724315 16.2495 0.117101 16.3186 0.173968 16.3769C0.230835 16.4352 0.298753 16.4815 0.373732 16.5132C0.448712 16.5448 0.529243 16.5611 0.610593 16.5611C0.691943 16.5611 0.772473 16.5448 0.847453 16.5132C0.922433 16.4815 0.990351 16.4352 1.04722 16.3769C1.10408 16.3186 1.14875 16.2495 1.1786 16.1736C1.20845 16.0978 1.22287 16.0167 1.22103 15.9352C1.22103 15.1083 1.71214 14.3145 2.60445 13.7003C3.56593 13.0386 4.85597 12.6733 6.23625 12.6733C7.29426 12.6733 8.29912 12.8879 9.14396 13.2863C9.37511 13.081 9.61872 12.8903 9.8734 12.7153Z" fill="white"/>
<path d="M10.7102 8.25511C10.7775 8.37339 10.849 8.48894 10.9246 8.60175C11.4282 9.35485 12.109 9.97207 12.907 10.3989C13.705 10.8257 14.5956 11.049 15.5001 11.049C16.4047 11.049 17.2953 10.8257 18.0933 10.3989C18.8913 9.97207 19.5721 9.35485 20.0757 8.60175C20.1515 8.48894 20.2231 8.37339 20.2904 8.25511C20.3638 8.12633 20.432 7.99429 20.4951 7.859C21.0862 6.58931 21.1738 5.14191 20.74 3.80995C20.6935 3.66793 20.6417 3.52854 20.5847 3.39177C20.5319 3.26572 20.4747 3.1424 20.4133 3.02182C19.9525 2.11263 19.2496 1.34905 18.3824 0.815685C17.5152 0.282322 16.5176 0 15.5001 0C14.4827 0 13.4851 0.282322 12.6179 0.815685C11.7507 1.34905 11.0477 2.11263 10.5869 3.02182C10.5255 3.14282 10.4684 3.26614 10.4156 3.39177C10.3584 3.52854 10.3066 3.66793 10.2603 3.80995C9.82641 5.14192 9.91408 6.5894 10.5055 7.859C10.5684 7.99429 10.6366 8.12633 10.7102 8.25511ZM15.5003 1.45942C17.5962 1.45942 19.3261 3.06121 19.5349 5.10763C19.5801 5.54778 19.5534 5.99237 19.4559 6.42392C19.0472 8.234 17.4283 9.58967 15.5003 9.58967C13.5723 9.58967 11.954 8.23463 11.5443 6.42392C11.4777 6.12879 11.4442 5.82713 11.4443 5.52455C11.4444 5.3852 11.4514 5.24595 11.4654 5.10732C11.6745 3.06121 13.4041 1.45942 15.5003 1.45942Z" fill="white"/>
<path d="M21.3664 13.9664C21.279 13.886 21.1879 13.8073 21.0932 13.7304C20.955 13.6178 20.8098 13.5089 20.6574 13.4036C20.4527 13.263 20.241 13.1329 20.0232 13.0138C19.9141 12.9539 19.8031 12.896 19.6899 12.8408C19.5767 12.7857 19.4617 12.733 19.3441 12.6833C18.1971 12.1882 16.8759 11.9229 15.501 11.9229C14.126 11.9229 12.8061 12.1879 11.6595 12.6826C11.5425 12.733 11.4272 12.7856 11.3136 12.8402C11.2001 12.8953 11.0891 12.9533 10.9797 13.0132C10.7616 13.1324 10.5497 13.2627 10.3449 13.4036C10.1921 13.5087 10.0466 13.6177 9.90849 13.7307C9.81417 13.8076 9.7232 13.8862 9.63558 13.9664C9.5466 14.0481 9.46077 14.1309 9.37902 14.2157C8.52413 15.1009 8.06445 16.1556 8.06445 17.2724C8.06445 17.4659 8.14114 17.6515 8.27764 17.7883C8.41414 17.9251 8.59928 18.0019 8.79232 18.0019C8.98537 18.0019 9.1705 17.9251 9.307 17.7883C9.44351 17.6515 9.52019 17.4659 9.52019 17.2724C9.52019 16.2861 10.1059 15.3394 11.1693 14.6071C12.316 13.8174 13.8541 13.3825 15.5004 13.3825C17.1466 13.3825 18.6844 13.8174 19.8311 14.6071C20.8944 15.3394 21.4802 16.2861 21.4802 17.2724C21.4842 17.4633 21.5626 17.6451 21.6987 17.7787C21.8348 17.9123 22.0177 17.9871 22.2082 17.9871C22.3987 17.9871 22.5817 17.9123 22.7178 17.7787C22.8539 17.6451 22.9323 17.4633 22.9363 17.2724C22.9363 16.1566 22.4766 15.1018 21.6214 14.2157C21.5396 14.13 21.4538 14.0471 21.3664 13.9664Z" fill="white"/>
</g>
<defs>
<clipPath id="clip0_158_1587">
<rect width="31" height="18" fill="white"/>
</clipPath>
</defs>
</svg>
