<svg width="150" height="88" viewBox="0 0 150 88" fill="none" xmlns="http://www.w3.org/2000/svg">
<path d="M119.825 13.0849C122.824 13.0856 125.764 13.9156 128.331 15.4851C130.897 17.0547 132.991 19.3042 134.387 21.9909C135.783 24.6776 136.427 27.6993 136.251 30.7298C136.074 33.7603 135.084 36.6844 133.386 39.1865C131.688 41.6886 129.348 43.6735 126.617 44.927C123.887 46.1806 120.87 46.655 117.893 46.2992C114.915 45.9434 112.09 44.7708 109.723 42.908C107.356 41.0452 105.536 38.5631 104.46 35.7295C103.755 38.1683 102.756 40.5099 101.486 42.7016C103.544 45.696 106.287 48.1423 109.48 49.8321C112.673 51.5219 116.223 52.405 119.825 52.4064C132.157 52.4064 142.189 42.2471 142.189 29.7618C142.189 17.2765 132.157 7.11722 119.825 7.11722C116.68 7.11524 113.569 7.78669 110.698 9.08754C107.826 10.3884 105.259 12.2892 103.164 14.6654C104.165 16.9984 104.877 19.4478 105.285 21.9579C106.685 19.2815 108.778 17.0415 111.339 15.4783C113.901 13.9152 116.835 13.0878 119.825 13.0849Z" fill="url(#paint0_linear_459_404)"/>
<path d="M140.744 62.0419C135.115 58.1276 127.686 55.971 119.826 55.971C112.675 55.971 105.889 57.7533 100.485 61.0191C101.077 61.3857 101.656 61.7631 102.222 62.1574C103.456 63.0131 104.635 63.9453 105.755 64.9487C109.843 63.0016 114.705 61.9572 119.826 61.9572C126.504 61.9572 132.744 63.7395 137.398 66.9775C141.713 69.9799 144.092 73.8602 144.092 77.9024C144.083 78.3008 144.153 78.6971 144.297 79.0679C144.442 79.4386 144.658 79.7765 144.933 80.0615C145.208 80.3465 145.537 80.5729 145.9 80.7275C146.262 80.8821 146.652 80.9618 147.046 80.9618C147.439 80.9618 147.829 80.8821 148.192 80.7275C148.554 80.5729 148.883 80.3465 149.158 80.0615C149.433 79.7765 149.65 79.4386 149.794 79.0679C149.938 78.6971 150.008 78.3008 149.999 77.9024C149.996 71.8253 146.71 66.1934 140.744 62.0419Z" fill="url(#paint1_linear_459_404)"/>
<path d="M30.1714 52.3941C33.774 52.3917 37.3227 51.5081 40.5155 49.8184C43.7083 48.1287 46.4507 45.6829 48.5094 42.6893C47.2385 40.4978 46.2391 38.1561 45.5337 35.7172C44.1868 39.272 41.6786 42.2527 38.4263 44.1636C35.174 46.0744 31.3737 46.8001 27.6574 46.2201C23.9412 45.64 20.5331 43.7891 18.0001 40.9752C15.467 38.1614 13.9618 34.5542 13.7347 30.7537C13.5076 26.9532 14.5723 23.1885 16.7518 20.0859C18.9313 16.9833 22.0941 14.7298 25.7142 13.7003C29.3342 12.6707 33.1933 12.9272 36.6494 14.427C40.1055 15.9268 42.9503 18.5796 44.7106 21.944C45.1191 19.4387 45.8314 16.994 46.8314 14.6654C44.738 12.2866 42.1715 10.383 39.3003 9.07948C36.429 7.77595 33.3181 7.10198 30.1714 7.10182C17.8397 7.10182 7.80814 17.2688 7.80814 29.7464C7.80814 42.224 17.8397 52.3941 30.1714 52.3941Z" fill="url(#paint2_linear_459_404)"/>
<path d="M47.773 62.1574C48.339 61.7631 48.9186 61.3872 49.5104 61.0191C44.1067 57.7533 37.3186 55.971 30.1714 55.971C22.3093 55.971 14.8807 58.1276 9.25339 62.0419C3.2868 66.2011 0.000760708 71.8253 0.000760708 77.8977C-0.00817075 78.2962 0.0616234 78.6925 0.206044 79.0632C0.350464 79.434 0.5666 79.7718 0.841754 80.0568C1.11691 80.3419 1.44553 80.5683 1.80833 80.7229C2.17112 80.8775 2.56077 80.9572 2.95439 80.9572C3.34801 80.9572 3.73766 80.8775 4.10045 80.7229C4.46325 80.5683 4.79188 80.3419 5.06703 80.0568C5.34218 79.7718 5.55832 79.434 5.70274 79.0632C5.84716 78.6925 5.91695 78.2962 5.90802 77.8977C5.90802 73.8556 8.28431 69.9752 12.6018 66.9729C17.254 63.7379 23.4959 61.9526 30.1745 61.9526C35.2937 61.9526 40.1558 63.0016 44.2436 64.9487C45.362 63.9454 46.5408 63.0132 47.773 62.1574Z" fill="url(#paint3_linear_459_404)"/>
<path d="M51.8213 40.3539C52.1468 40.9321 52.4927 41.4969 52.8588 42.0484C55.2952 45.7299 58.5895 48.747 62.4507 50.8334C66.3119 52.9199 70.6211 54.0113 74.9977 54.0113C79.3743 54.0113 83.6835 52.9199 87.5447 50.8334C91.4059 48.747 94.7002 45.7299 97.1366 42.0484C97.5038 41.4969 97.8501 40.9321 98.1757 40.3539C98.5307 39.7244 98.8608 39.079 99.1661 38.4176C102.026 32.2109 102.45 25.1355 100.351 18.6244C100.126 17.9301 99.8755 17.2487 99.5996 16.5802C99.3441 15.964 99.0677 15.3612 98.7705 14.7717C96.5409 10.3273 93.1397 6.59463 88.9437 3.98736C84.7477 1.38009 79.9208 0 74.9977 0C70.0747 0 65.2477 1.38009 61.0517 3.98736C56.8557 6.59463 53.4545 10.3273 51.2249 14.7717C50.9277 15.3632 50.6514 15.9661 50.3958 16.5802C50.1189 17.2487 49.8684 17.9301 49.6443 18.6244C47.545 25.1355 47.9693 32.2113 50.8309 38.4176C51.1352 39.079 51.4653 39.7244 51.8213 40.3539ZM74.9985 7.13416C85.1396 7.13416 93.5098 14.9643 94.52 24.9679C94.7389 27.1195 94.6099 29.2928 94.1381 31.4024C92.1604 40.2507 84.3272 46.8777 74.9985 46.8777C65.6698 46.8777 57.8396 40.2538 55.8573 31.4024C55.5351 29.9597 55.3728 28.4851 55.3735 27.0059C55.3737 26.3248 55.4077 25.6441 55.4755 24.9664C56.4871 14.9643 64.8559 7.13416 74.9985 7.13416Z" fill="url(#paint4_linear_459_404)"/>
<path d="M103.382 68.273C102.959 67.8797 102.518 67.4951 102.06 67.1192C101.391 66.5688 100.688 66.0363 99.9511 65.5218C98.9607 64.8344 97.9366 64.1984 96.8826 63.6162C96.3547 63.3236 95.8177 63.0401 95.27 62.7705C94.7223 62.501 94.1655 62.2437 93.5965 62.0003C88.0468 59.5803 81.6542 58.2832 75.0015 58.2832C68.3488 58.2832 61.9623 59.5787 56.4141 61.9972C55.8482 62.2437 55.2904 62.5004 54.7407 62.7675C54.1915 63.037 53.6544 63.3205 53.125 63.6132C52.0698 64.196 51.0446 64.8331 50.0535 65.5218C49.3141 66.0353 48.6103 66.5683 47.9419 67.1208C47.4855 67.4966 47.0454 67.8807 46.6214 68.273C46.1909 68.672 45.7756 69.0771 45.38 69.4915C41.2436 73.8186 39.0194 78.9745 39.0194 84.4339C39.0194 85.3797 39.3905 86.2867 40.0509 86.9555C40.7114 87.6243 41.6072 88 42.5412 88C43.4753 88 44.3711 87.6243 45.0316 86.9555C45.692 86.2867 46.0631 85.3797 46.0631 84.4339C46.0631 79.6123 48.8973 74.9848 54.0424 71.4048C59.5906 67.5444 67.0329 65.4186 74.9985 65.4186C82.9641 65.4186 90.4048 67.5444 95.953 71.4048C101.098 74.9848 103.932 79.6123 103.932 84.4339C103.951 85.367 104.331 86.2554 104.99 86.9085C105.648 87.5616 106.533 87.9274 107.455 87.9274C108.377 87.9274 109.262 87.5616 109.92 86.9085C110.579 86.2554 110.958 85.367 110.978 84.4339C110.978 78.9791 108.753 73.8232 104.615 69.4915C104.22 69.0725 103.805 68.6674 103.382 68.273Z" fill="url(#paint5_linear_459_404)"/>
<defs>
<linearGradient id="paint0_linear_459_404" x1="75" y1="0" x2="75" y2="88" gradientUnits="userSpaceOnUse">
<stop stop-color="#3D99D5"/>
<stop offset="1" stop-color="#00AE6A"/>
</linearGradient>
<linearGradient id="paint1_linear_459_404" x1="75" y1="0" x2="75" y2="88" gradientUnits="userSpaceOnUse">
<stop stop-color="#3D99D5"/>
<stop offset="1" stop-color="#00AE6A"/>
</linearGradient>
<linearGradient id="paint2_linear_459_404" x1="75" y1="0" x2="75" y2="88" gradientUnits="userSpaceOnUse">
<stop stop-color="#3D99D5"/>
<stop offset="1" stop-color="#00AE6A"/>
</linearGradient>
<linearGradient id="paint3_linear_459_404" x1="75" y1="0" x2="75" y2="88" gradientUnits="userSpaceOnUse">
<stop stop-color="#3D99D5"/>
<stop offset="1" stop-color="#00AE6A"/>
</linearGradient>
<linearGradient id="paint4_linear_459_404" x1="75" y1="0" x2="75" y2="88" gradientUnits="userSpaceOnUse">
<stop stop-color="#3D99D5"/>
<stop offset="1" stop-color="#00AE6A"/>
</linearGradient>
<linearGradient id="paint5_linear_459_404" x1="75" y1="0" x2="75" y2="88" gradientUnits="userSpaceOnUse">
<stop stop-color="#3D99D5"/>
<stop offset="1" stop-color="#00AE6A"/>
</linearGradient>
</defs>
</svg>
