<?xml version="1.0" encoding="utf-8"?>
<!-- Generator: Adobe Illustrator 24.3.0, SVG Export Plug-In . SVG Version: 6.00 Build 0)  -->
<svg version="1.1" id="Layer_1" xmlns="http://www.w3.org/2000/svg" xmlns:xlink="http://www.w3.org/1999/xlink" x="0px" y="0px"
	 viewBox="0 0 180 53.3" style="enable-background:new 0 0 180 53.3;" xml:space="preserve">
<style type="text/css">
	.st0{fill:#A6A6A6;}
	.st1{fill:#FFFFFF;}
	.st2{fill:url(#SVGID_1_);}
	.st3{fill:url(#SVGID_2_);}
	.st4{fill:url(#SVGID_3_);}
	.st5{fill:url(#SVGID_4_);}
	.st6{opacity:0.2;enable-background:new    ;}
	.st7{opacity:0.12;enable-background:new    ;}
	.st8{opacity:0.25;fill:#FFFFFF;enable-background:new    ;}
	.st9{fill:#FFFFFF;stroke:#FFFFFF;stroke-width:0.2;stroke-miterlimit:10;}
</style>
<g>
	<g>
		<g>
			<path d="M173.3,53.3H6.7c-3.7,0-6.7-3-6.7-6.7v-40C0,3,3,0,6.7,0h166.7c3.7,0,6.7,3,6.7,6.7v40C180,50.3,177,53.3,173.3,53.3z"/>
		</g>
		<g>
			<g>
				<path class="st0" d="M173.3,1.1c3.1,0,5.6,2.5,5.6,5.6v40c0,3.1-2.5,5.6-5.6,5.6H6.7c-3.1,0-5.6-2.5-5.6-5.6v-40
					c0-3.1,2.5-5.6,5.6-5.6H173.3 M173.3,0H6.7C3,0,0,3,0,6.7v40c0,3.7,3,6.7,6.7,6.7h166.7c3.7,0,6.7-3,6.7-6.7v-40
					C180,3,177,0,173.3,0L173.3,0z"/>
			</g>
		</g>
		<path class="st1" d="M90.8,29c-3.1,0-5.7,2.4-5.7,5.7c0,3.3,2.6,5.7,5.7,5.7c3.1,0,5.7-2.4,5.7-5.7C96.5,31.4,94,29,90.8,29z
			 M90.8,38.1c-1.7,0-3.2-1.4-3.2-3.4c0-2,1.5-3.4,3.2-3.4c1.7,0,3.2,1.4,3.2,3.4C94,36.7,92.6,38.1,90.8,38.1z M78.4,29
			c-3.1,0-5.7,2.4-5.7,5.7c0,3.3,2.6,5.7,5.7,5.7c3.1,0,5.7-2.4,5.7-5.7C84.1,31.4,81.6,29,78.4,29z M78.4,38.1
			c-1.7,0-3.2-1.4-3.2-3.4c0-2,1.5-3.4,3.2-3.4c1.7,0,3.2,1.4,3.2,3.4C81.6,36.7,80.1,38.1,78.4,38.1z M63.7,30.7v2.4h5.8
			c-0.2,1.4-0.6,2.3-1.3,3c-0.8,0.8-2.1,1.8-4.4,1.8c-3.5,0-6.3-2.9-6.3-6.4s2.8-6.4,6.3-6.4c1.9,0,3.3,0.8,4.3,1.7l1.7-1.7
			c-1.4-1.4-3.4-2.4-6-2.4c-4.9,0-8.9,4-8.9,8.8c0,4.9,4.1,8.8,8.9,8.8c2.6,0,4.6-0.9,6.1-2.5c1.6-1.6,2.1-3.8,2.1-5.6
			c0-0.6,0-1.1-0.1-1.5H63.7z M124.1,32.6c-0.5-1.3-1.9-3.6-4.9-3.6c-2.9,0-5.3,2.3-5.3,5.7c0,3.2,2.4,5.7,5.6,5.7
			c2.6,0,4.1-1.6,4.7-2.5l-1.9-1.3c-0.6,0.9-1.5,1.6-2.8,1.6c-1.3,0-2.2-0.6-2.7-1.7l7.6-3.1L124.1,32.6z M116.3,34.5
			c-0.1-2.2,1.7-3.3,3-3.3c1,0,1.8,0.5,2.1,1.2L116.3,34.5z M110.2,40h2.5V23.3h-2.5V40z M106.1,30.3L106.1,30.3
			c-0.6-0.7-1.7-1.3-3.1-1.3c-2.8,0-5.4,2.5-5.4,5.7c0,3.2,2.6,5.6,5.4,5.6c1.4,0,2.4-0.6,3-1.3h0.1v0.8c0,2.2-1.2,3.3-3,3.3
			c-1.5,0-2.5-1.1-2.9-2L98,42.1c0.6,1.5,2.3,3.4,5,3.4c2.9,0,5.4-1.7,5.4-5.9V29.3h-2.4V30.3z M103.2,38.1c-1.7,0-3.2-1.4-3.2-3.4
			c0-2,1.4-3.5,3.2-3.5c1.7,0,3,1.5,3,3.5C106.3,36.7,104.9,38.1,103.2,38.1z M135.7,23.3h-6V40h2.5v-6.3h3.5c2.8,0,5.5-2,5.5-5.2
			S138.5,23.3,135.7,23.3z M135.8,31.4h-3.5v-5.7h3.5c1.9,0,2.9,1.5,2.9,2.9C138.7,29.8,137.7,31.4,135.8,31.4z M151.2,29
			c-1.8,0-3.7,0.8-4.4,2.6l2.2,0.9c0.5-0.9,1.4-1.2,2.3-1.2c1.3,0,2.6,0.8,2.6,2.1v0.2c-0.5-0.3-1.4-0.6-2.6-0.6
			c-2.4,0-4.8,1.3-4.8,3.8c0,2.2,2,3.7,4.1,3.7c1.7,0,2.6-0.8,3.2-1.6h0.1V40h2.4v-6.4C156.2,30.6,154,29,151.2,29z M150.9,38.1
			c-0.8,0-2-0.4-2-1.4c0-1.3,1.4-1.8,2.6-1.8c1.1,0,1.6,0.2,2.3,0.6C153.6,37,152.3,38.1,150.9,38.1z M165,29.3l-2.9,7.2h-0.1
			l-3-7.2h-2.7l4.4,10.1l-2.5,5.6h2.6l6.8-15.7H165z M142.6,40h2.5V23.3h-2.5V40z"/>
		<g>
			
				<linearGradient id="SVGID_1_" gradientUnits="userSpaceOnUse" x1="29.0662" y1="44.3872" x2="6.6896" y2="22.0107" gradientTransform="matrix(1 0 0 -1 0 56)">
				<stop  offset="0" style="stop-color:#00A0FF"/>
				<stop  offset="6.574450e-03" style="stop-color:#00A1FF"/>
				<stop  offset="0.2601" style="stop-color:#00BEFF"/>
				<stop  offset="0.5122" style="stop-color:#00D2FF"/>
				<stop  offset="0.7604" style="stop-color:#00DFFF"/>
				<stop  offset="1" style="stop-color:#00E3FF"/>
			</linearGradient>
			<path class="st2" d="M13.9,10.1c-0.4,0.4-0.6,1-0.6,1.9v29.5c0,0.8,0.2,1.5,0.6,1.9l0.1,0.1l16.5-16.5v-0.2v-0.2L13.9,10.1
				L13.9,10.1z"/>
			
				<linearGradient id="SVGID_2_" gradientUnits="userSpaceOnUse" x1="45.1124" y1="29.3316" x2="12.8498" y2="29.3316" gradientTransform="matrix(1 0 0 -1 0 56)">
				<stop  offset="0" style="stop-color:#FFE000"/>
				<stop  offset="0.4087" style="stop-color:#FFBD00"/>
				<stop  offset="0.7754" style="stop-color:#FFA500"/>
				<stop  offset="1" style="stop-color:#FF9C00"/>
			</linearGradient>
			<path class="st3" d="M36,32.4l-5.5-5.5v-0.2v-0.2L36,21l0.1,0.1l6.5,3.7c1.9,1.1,1.9,2.8,0,3.9l-6.5,3.7L36,32.4z"/>
			
				<linearGradient id="SVGID_3_" gradientUnits="userSpaceOnUse" x1="33.1025" y1="26.272" x2="2.7581" y2="-4.0723" gradientTransform="matrix(1 0 0 -1 0 56)">
				<stop  offset="0" style="stop-color:#FF3A44"/>
				<stop  offset="1" style="stop-color:#C31162"/>
			</linearGradient>
			<path class="st4" d="M36.2,32.3l-5.6-5.6L13.9,43.3c0.6,0.7,1.6,0.7,2.8,0.1L36.2,32.3"/>
			
				<linearGradient id="SVGID_4_" gradientUnits="userSpaceOnUse" x1="9.7296" y1="55.7653" x2="23.2797" y2="42.2152" gradientTransform="matrix(1 0 0 -1 0 56)">
				<stop  offset="0" style="stop-color:#32A071"/>
				<stop  offset="6.850000e-02" style="stop-color:#2DA771"/>
				<stop  offset="0.4762" style="stop-color:#15CF74"/>
				<stop  offset="0.8009" style="stop-color:#06E775"/>
				<stop  offset="1" style="stop-color:#00F076"/>
			</linearGradient>
			<path class="st5" d="M36.2,21L16.7,10c-1.1-0.6-2.2-0.6-2.8,0.1l16.6,16.6L36.2,21z"/>
			<g>
				<path class="st6" d="M36,32.2l-19.4,11c-1.1,0.6-2.1,0.6-2.7,0l0,0l-0.1,0.1l0,0l0.1,0.1l0,0c0.6,0.6,1.6,0.6,2.7,0l19.5-11.1
					L36,32.2z"/>
				<path class="st7" d="M13.9,43.1c-0.4-0.4-0.6-1-0.6-1.9v0.2c0,0.8,0.2,1.5,0.6,1.9V43.1L13.9,43.1z"/>
			</g>
			<path class="st7" d="M42.7,28.4L36,32.2l0.1,0.1l6.5-3.7c0.9-0.5,1.4-1.2,1.4-1.9l0,0C44,27.3,43.5,27.9,42.7,28.4z"/>
			<path class="st8" d="M16.7,10.2l26,14.8c0.8,0.5,1.3,1.1,1.4,1.7l0,0c0-0.7-0.5-1.4-1.4-1.9L16.7,10c-1.9-1.1-3.4-0.2-3.4,2v0.2
				C13.3,10,14.8,9.1,16.7,10.2z"/>
		</g>
	</g>
	<g>
		<path class="st9" d="M56.1,15.2c2.1,0,3.7-0.1,5.4-0.4l0.1,0.9c-1.8,0.3-3.4,0.4-5.6,0.4H55V8.3h5.6v0.9h-4.5V15.2z M65.6,12.8h-2
			v6.4h-1.1v-12h1.1v4.7h2V12.8z"/>
		<path class="st9" d="M77.8,13.2v0.9H73v2.4h-1.1v-2.4h-5v-0.9H77.8z M68.2,9.8c0-1.5,1.7-2.4,4.2-2.4c2.5,0,4.2,0.9,4.2,2.4
			s-1.7,2.4-4.2,2.4C69.8,12.2,68.2,11.3,68.2,9.8z M69.4,17.9h7.2v0.9h-8.3v-3.5h1.1V17.9z M69.3,9.8c0,0.9,1.2,1.5,3,1.5
			c1.8,0,3-0.6,3-1.5c0-0.9-1.2-1.5-3-1.5C70.5,8.3,69.3,8.9,69.3,9.8z"/>
		<path class="st9" d="M89.6,16.7v0.9H78.8v-0.9h4.9v-2.3h-3.5v-3.7h7.1V8.9h-7.1V8h8.2v3.6h-7.1v1.9h7.4v0.9h-3.8v2.3H89.6z"/>
		<path class="st9" d="M102.1,16.6v0.9H91.2v-0.9H102.1z M100.8,13.8h-8.2V8.2h8.1v0.9h-7v3.7h7.1V13.8z"/>
		<path class="st9" d="M107.1,9.1h2.9v0.9h-7V9.1h3V7.3h1.1V9.1z M109.5,13.7c0,1.6-1.2,2.7-2.9,2.7c-1.7,0-2.9-1.1-2.9-2.7
			c0-1.6,1.2-2.8,2.9-2.8C108.3,10.9,109.5,12.1,109.5,13.7z M108.5,13.7c0-1.1-0.8-1.9-1.9-1.9c-1.1,0-1.9,0.8-1.9,1.9
			c0,1.1,0.8,1.8,1.9,1.8C107.7,15.5,108.5,14.8,108.5,13.7z M114.2,13h-2v6.1h-1.1V7.2h1.1v4.9h2V13z"/>
		<path class="st9" d="M121,8.4c0,3.5-1.6,6.5-5.6,8.4l-0.6-0.9c3.2-1.5,4.8-3.8,5-6.7h-4.5V8.4H121z M124.5,7.1v12h-1.1v-12H124.5z
			"/>
	</g>
</g>
</svg>
