<svg width="15" height="12" viewBox="0 0 15 12" fill="none" xmlns="http://www.w3.org/2000/svg">
<path d="M1.25 10.2857V3.42857H13.75V10.2857C13.75 10.3994 13.7061 10.5084 13.628 10.5888C13.5498 10.6691 13.4438 10.7143 13.3333 10.7143H8.33333C8.33333 10.146 8.11384 9.60092 7.72314 9.19906C7.33244 8.79719 6.80253 8.57143 6.25 8.57143H4.58333C4.0308 8.57143 3.5009 8.79719 3.11019 9.19906C2.71949 9.60092 2.5 10.146 2.5 10.7143H1.66667C1.55616 10.7143 1.45018 10.6691 1.37204 10.5888C1.2939 10.5084 1.25 10.3994 1.25 10.2857ZM1.66667 0C1.22477 0.00042552 0.801083 0.181174 0.488612 0.502573C0.176141 0.823971 0.0004137 1.25976 0 1.71429V10.2857C0.0004137 10.7402 0.176141 11.176 0.488612 11.4974C0.801083 11.8188 1.22477 11.9996 1.66667 12H13.3333C13.7752 11.9996 14.1989 11.8188 14.5114 11.4974C14.8239 11.176 14.9996 10.7402 15 10.2857V1.71429C14.9996 1.25976 14.8239 0.823971 14.5114 0.502573C14.1989 0.181174 13.7752 0.00042552 13.3333 0H1.66667ZM5.41667 7.5C5.7051 7.5 5.98705 7.41203 6.22687 7.2472C6.46669 7.08238 6.65361 6.84811 6.76399 6.57403C6.87437 6.29994 6.90325 5.99834 6.84698 5.70737C6.79071 5.41639 6.65182 5.14912 6.44786 4.93934C6.24391 4.72956 5.98406 4.5867 5.70117 4.52882C5.41828 4.47094 5.12506 4.50065 4.85859 4.61418C4.59211 4.72771 4.36435 4.91997 4.20411 5.16664C4.04386 5.41332 3.95833 5.70333 3.95833 6C3.95833 6.39782 4.11198 6.77936 4.38547 7.06066C4.65896 7.34197 5.02989 7.5 5.41667 7.5ZM9.79167 4.71429C9.62591 4.71429 9.46694 4.78202 9.34972 4.90257C9.23251 5.02313 9.16667 5.18665 9.16667 5.35714C9.16667 5.52764 9.23251 5.69115 9.34972 5.81171C9.46694 5.93227 9.62591 6 9.79167 6H11.875C12.0408 6 12.1997 5.93227 12.3169 5.81171C12.4342 5.69115 12.5 5.52764 12.5 5.35714C12.5 5.18665 12.4342 5.02313 12.3169 4.90257C12.1997 4.78202 12.0408 4.71429 11.875 4.71429H9.79167ZM9.79167 7.28571C9.62591 7.28571 9.46694 7.35344 9.34972 7.474C9.23251 7.59456 9.16667 7.75808 9.16667 7.92857C9.16667 8.09907 9.23251 8.26258 9.34972 8.38314C9.46694 8.5037 9.62591 8.57143 9.79167 8.57143H11.875C12.0408 8.57143 12.1997 8.5037 12.3169 8.38314C12.4342 8.26258 12.5 8.09907 12.5 7.92857C12.5 7.75808 12.4342 7.59456 12.3169 7.474C12.1997 7.35344 12.0408 7.28571 11.875 7.28571H9.79167Z" fill="url(#paint0_linear_158_1389)"/>
<defs>
<linearGradient id="paint0_linear_158_1389" x1="7.5" y1="0" x2="7.5" y2="12" gradientUnits="userSpaceOnUse">
<stop stop-color="#3D99D5"/>
<stop offset="1" stop-color="#00AE6A"/>
</linearGradient>
</defs>
</svg>
