<svg width="15" height="15" viewBox="0 0 15 15" fill="none" xmlns="http://www.w3.org/2000/svg">
<circle cx="7.5" cy="7.5" r="7" fill="white" stroke="#FEBC2F"/>
<g clip-path="url(#clip0_457_836)">
<path d="M7 2.9375C7 2.75208 7.05865 2.57082 7.16853 2.41665C7.27841 2.26248 7.43459 2.14232 7.61732 2.07136C7.80004 2.00041 8.00111 1.98184 8.19509 2.01801C8.38907 2.05419 8.56725 2.14348 8.70711 2.27459C8.84696 2.4057 8.9422 2.57275 8.98079 2.7546C9.01937 2.93646 8.99957 3.12496 8.92388 3.29627C8.84819 3.46757 8.72002 3.61399 8.55557 3.717C8.39112 3.82002 8.19778 3.875 8 3.875C7.73478 3.875 7.48043 3.77623 7.29289 3.60041C7.10536 3.4246 7 3.18614 7 2.9375ZM6 5.75C6 5.58424 6.07024 5.42527 6.19526 5.30806C6.32029 5.19085 6.48986 5.125 6.66667 5.125H8C8.17681 5.125 8.34638 5.19085 8.4714 5.30806C8.59643 5.42527 8.66667 5.58424 8.66667 5.75V10.75H9.33333C9.51014 10.75 9.67971 10.8158 9.80474 10.9331C9.92976 11.0503 10 11.2092 10 11.375C10 11.5408 9.92976 11.6997 9.80474 11.8169C9.67971 11.9342 9.51014 12 9.33333 12H6.66667C6.48986 12 6.32029 11.9342 6.19526 11.8169C6.07024 11.6997 6 11.5408 6 11.375C6 11.2092 6.07024 11.0503 6.19526 10.9331C6.32029 10.8158 6.48986 10.75 6.66667 10.75H7.33333V6.375H6.66667C6.48986 6.375 6.32029 6.30915 6.19526 6.19194C6.07024 6.07473 6 5.91576 6 5.75Z" fill="#FEBC2F"/>
</g>
<defs>
<clipPath id="clip0_457_836">
<rect width="4" height="10" fill="white" transform="translate(6 2)"/>
</clipPath>
</defs>
</svg>
