<svg width="40" height="40" viewBox="0 0 40 40" fill="none" xmlns="http://www.w3.org/2000/svg">
<g clip-path="url(#clip0_158_788)">
<path d="M20 40C31.0457 40 40 31.0457 40 20C40 8.9543 31.0457 0 20 0C8.9543 0 0 8.9543 0 20C0 31.0457 8.9543 40 20 40Z" fill="#F8E049"/>
<path d="M19.9997 8.2251C12.9197 8.2251 7.17969 12.7601 7.17969 18.3601C7.17969 22.0001 9.61469 25.1951 13.2647 26.9801C12.9947 27.9801 12.2897 30.6051 12.1497 31.1701C11.9797 31.8651 12.4047 31.8551 12.6897 31.6701L17.6197 28.3151C18.4076 28.432 19.2031 28.4905 19.9997 28.4901C27.0797 28.4901 32.8197 23.9551 32.8197 18.3601C32.8197 12.7651 27.0797 8.2251 19.9997 8.2251Z" fill="#371C1D"/>
</g>
<defs>
<clipPath id="clip0_158_788">
<rect width="40" height="40" fill="white"/>
</clipPath>
</defs>
</svg>
