<svg width="50" height="29" viewBox="0 0 50 29" fill="none" xmlns="http://www.w3.org/2000/svg">
<g clip-path="url(#clip0_158_544)">
<path d="M39.9424 4.31255C40.9418 4.31278 41.9221 4.58631 42.7776 5.10361C43.633 5.62091 44.3311 6.36232 44.7963 7.24779C45.2616 8.13327 45.4765 9.12916 45.4177 10.128C45.3589 11.1268 45.0287 12.0905 44.4628 12.9151C43.8968 13.7398 43.1166 14.394 42.2064 14.8071C41.2962 15.2203 40.2906 15.3766 39.2981 15.2594C38.3056 15.1421 37.364 14.7556 36.5749 14.1417C35.7858 13.5277 35.1791 12.7097 34.8205 11.7758C34.5854 12.5795 34.2525 13.3513 33.8291 14.0736C34.5152 15.0606 35.4294 15.8668 36.4938 16.4237C37.5583 16.9806 38.7414 17.2717 39.9424 17.2722C44.0531 17.2722 47.3971 13.9239 47.3971 9.80894C47.3971 5.69401 44.0531 2.3457 39.9424 2.3457C38.8938 2.34505 37.8569 2.56635 36.8998 2.99509C35.9426 3.42382 35.0868 4.05031 34.3885 4.83345C34.7222 5.60237 34.9596 6.40965 35.0954 7.23692C35.562 6.35483 36.2597 5.61657 37.1136 5.10138C37.9675 4.58618 38.9454 4.31348 39.9424 4.31255Z" fill="#B9C1C9"/>
<path d="M46.916 20.4476C45.0397 19.1576 42.5634 18.4468 39.9431 18.4468C37.5596 18.4468 35.2974 19.0342 33.4961 20.1105C33.6934 20.2314 33.8866 20.3557 34.0752 20.4857C34.4863 20.7677 34.8796 21.075 35.2528 21.4057C36.6154 20.7639 38.2361 20.4197 39.9431 20.4197C42.1694 20.4197 44.2496 21.0071 45.8008 22.0743C47.239 23.0638 48.0322 24.3427 48.0322 25.6749C48.0292 25.8063 48.0525 25.9369 48.1006 26.0591C48.1487 26.1813 48.2208 26.2926 48.3125 26.3865C48.4042 26.4805 48.5138 26.5551 48.6347 26.6061C48.7557 26.657 48.8855 26.6833 49.0168 26.6833C49.148 26.6833 49.2778 26.657 49.3988 26.6061C49.5197 26.5551 49.6293 26.4805 49.721 26.3865C49.8127 26.2926 49.8848 26.1813 49.9329 26.0591C49.981 25.9369 50.0043 25.8063 50.0013 25.6749C50.0003 23.6721 48.9049 21.8159 46.916 20.4476Z" fill="#B9C1C9"/>
<path d="M10.0572 17.2678C11.2581 17.267 12.441 16.9758 13.5053 16.4189C14.5696 15.862 15.4838 15.0559 16.17 14.0693C15.7464 13.347 15.4132 12.5753 15.1781 11.7714C14.7291 12.943 13.8931 13.9254 12.8089 14.5552C11.7248 15.185 10.458 15.4242 9.21917 15.233C7.98039 15.0418 6.84432 14.4318 5.99995 13.5044C5.15559 12.577 4.65382 11.3881 4.57811 10.1355C4.50241 8.88298 4.85734 7.64222 5.58385 6.61966C6.31037 5.5971 7.36468 4.85439 8.5714 4.51507C9.77812 4.17574 11.0645 4.26027 12.2166 4.75458C13.3687 5.2489 14.317 6.1232 14.9037 7.23205C15.0399 6.40634 15.2773 5.60062 15.6107 4.83315C14.9129 4.04915 14.0573 3.42175 13.1002 2.99213C12.1431 2.56251 11.1061 2.34039 10.0572 2.34033C5.94649 2.34033 2.60254 5.69117 2.60254 9.80357C2.60254 13.916 5.94649 17.2678 10.0572 17.2678Z" fill="#B9C1C9"/>
<path d="M15.9248 20.4857C16.1135 20.3557 16.3067 20.2319 16.504 20.1105C14.7027 19.0342 12.4399 18.4468 10.0575 18.4468C7.43666 18.4468 4.96039 19.1576 3.08456 20.4476C1.09563 21.8184 0.000253577 23.6721 0.000253577 25.6734C-0.00272367 25.8047 0.0205418 25.9353 0.0686833 26.0575C0.116825 26.1797 0.188873 26.2911 0.280593 26.385C0.372314 26.479 0.481859 26.5536 0.602794 26.6045C0.72373 26.6555 0.853617 26.6818 0.984827 26.6818C1.11604 26.6818 1.24592 26.6555 1.36686 26.6045C1.4878 26.5536 1.59734 26.479 1.68906 26.385C1.78078 26.2911 1.85283 26.1797 1.90097 26.0575C1.94911 25.9353 1.97238 25.8047 1.9694 25.6734C1.9694 24.3412 2.76152 23.0623 4.20073 22.0728C5.7515 21.0066 7.83221 20.4182 10.0585 20.4182C11.7649 20.4182 13.3857 20.7639 14.7483 21.4057C15.1211 21.075 15.5141 20.7678 15.9248 20.4857Z" fill="#B9C1C9"/>
<path d="M17.2737 13.2999C17.3823 13.4905 17.4976 13.6766 17.6196 13.8584C18.4318 15.0717 19.5299 16.0661 20.817 16.7538C22.1041 17.4414 23.5406 17.8011 24.9995 17.8011C26.4584 17.8011 27.8948 17.4414 29.1819 16.7538C30.469 16.0661 31.5672 15.0717 32.3793 13.8584C32.5017 13.6766 32.6172 13.4905 32.7257 13.2999C32.844 13.0924 32.9541 12.8797 33.0558 12.6617C34.0093 10.6161 34.1505 8.28418 33.4509 6.13825C33.3758 5.90944 33.2923 5.68487 33.2004 5.46452C33.1152 5.26144 33.023 5.06276 32.924 4.86848C32.1808 3.40368 31.047 2.17347 29.6483 1.31416C28.2496 0.454852 26.6405 0 24.9995 0C23.3584 0 21.7494 0.454852 20.3507 1.31416C18.9519 2.17347 17.8182 3.40368 17.075 4.86848C16.9759 5.06344 16.8838 5.26212 16.7986 5.46452C16.7063 5.68487 16.6228 5.90944 16.5481 6.13825C15.8483 8.28421 15.9897 10.6163 16.9436 12.6617C17.045 12.8797 17.1551 13.0924 17.2737 13.2999ZM24.9997 2.35129C28.3802 2.35129 31.1704 4.93194 31.5071 8.22897C31.58 8.93809 31.537 9.65437 31.3798 10.3496C30.7205 13.2659 28.1094 15.45 24.9997 15.45C21.8901 15.45 19.2799 13.2669 18.6191 10.3496C18.5117 9.87416 18.4576 9.38815 18.4579 8.90066C18.4579 8.67616 18.4693 8.45181 18.4918 8.22846C18.8291 4.93194 21.6187 2.35129 24.9997 2.35129Z" fill="#3899D7"/>
<path d="M34.4616 22.5014C34.3206 22.3718 34.1737 22.245 34.0209 22.1212C33.7981 21.9397 33.5638 21.7643 33.318 21.5947C32.9879 21.3681 32.6465 21.1585 32.2951 20.9667C32.1192 20.8702 31.9402 20.7768 31.7576 20.6879C31.575 20.5991 31.3894 20.5143 31.1998 20.4341C29.3498 19.6365 27.2189 19.209 25.0012 19.209C22.7836 19.209 20.6547 19.636 18.8052 20.4331C18.6166 20.5143 18.4307 20.5989 18.2474 20.6869C18.0643 20.7758 17.8853 20.8692 17.7089 20.9656C17.3571 21.1577 17.0154 21.3677 16.685 21.5947C16.4385 21.7639 16.2039 21.9396 15.9811 22.1217C15.829 22.2456 15.6822 22.3721 15.5409 22.5014C15.3974 22.6329 15.259 22.7665 15.1271 22.903C13.7482 24.3292 13.0068 26.0284 13.0068 27.8277C13.0068 28.1395 13.1305 28.4384 13.3507 28.6588C13.5709 28.8793 13.8695 29.0031 14.1808 29.0031C14.4922 29.0031 14.7908 28.8793 15.011 28.6588C15.2311 28.4384 15.3548 28.1395 15.3548 27.8277C15.3548 26.2386 16.2996 24.7135 18.0146 23.5336C19.8641 22.2613 22.3449 21.5607 25.0002 21.5607C27.6555 21.5607 30.1358 22.2613 31.9853 23.5336C33.7004 24.7135 34.6451 26.2386 34.6451 27.8277C34.6515 28.1353 34.778 28.4281 34.9976 28.6434C35.2171 28.8586 35.5121 28.9792 35.8194 28.9792C36.1266 28.9792 36.4217 28.8586 36.6412 28.6434C36.8607 28.4281 36.9872 28.1353 36.9936 27.8277C36.9936 26.03 36.2522 24.3307 34.8728 22.903C34.741 22.7649 34.6025 22.6314 34.4616 22.5014Z" fill="#3899D7"/>
</g>
<defs>
<clipPath id="clip0_158_544">
<rect width="50" height="29" fill="white"/>
</clipPath>
</defs>
</svg>
