<svg width="16" height="20" viewBox="0 0 16 20" fill="none" xmlns="http://www.w3.org/2000/svg">
<path d="M11.6114 7.66867C11.5434 7.66898 11.476 7.65565 11.4132 7.62944C11.3504 7.60323 11.2933 7.56464 11.2452 7.51594C11.1971 7.46724 11.1591 7.40936 11.1332 7.34567C11.1074 7.28197 11.0942 7.21373 11.0945 7.14485V4.49738C11.0713 3.59839 10.7026 2.74412 10.067 2.11659C9.4314 1.48906 8.5791 1.13787 7.69174 1.13787C6.80438 1.13787 5.95211 1.48906 5.3165 2.11659C4.68089 2.74412 4.3122 3.59839 4.28899 4.49738V7.14485C4.28018 7.27801 4.22178 7.40279 4.1256 7.49395C4.02942 7.5851 3.90265 7.63582 3.77096 7.63582C3.63928 7.63582 3.5125 7.5851 3.41632 7.49395C3.32014 7.40279 3.26174 7.27801 3.25293 7.14485V4.49738C3.25293 3.3046 3.72046 2.16067 4.55268 1.31725C5.38491 0.473824 6.51363 0 7.69057 0C8.86751 0 9.99627 0.473824 10.8285 1.31725C11.6607 2.16067 12.1282 3.3046 12.1282 4.49738V7.14485C12.1286 7.21373 12.1154 7.28197 12.0895 7.34567C12.0637 7.40936 12.0256 7.46724 11.9775 7.51594C11.9295 7.56464 11.8724 7.60323 11.8095 7.62944C11.7467 7.65565 11.6793 7.66898 11.6114 7.66867Z" fill="#B9C1C9"/>
<path d="M7.68991 16.1936C7.55301 16.193 7.42192 16.1376 7.32512 16.0395C7.22832 15.9414 7.17365 15.8085 7.17304 15.6698V14.0629C7.16828 13.991 7.17815 13.9188 7.20203 13.851C7.22591 13.7831 7.26331 13.7209 7.31188 13.6683C7.36045 13.6156 7.41916 13.5736 7.48439 13.545C7.54962 13.5163 7.61996 13.5015 7.69107 13.5015C7.76218 13.5015 7.83255 13.5163 7.89778 13.545C7.96301 13.5736 8.02172 13.6156 8.07029 13.6683C8.11886 13.7209 8.15626 13.7831 8.18014 13.851C8.20402 13.9188 8.21389 13.991 8.20913 14.0629V15.6627C8.20975 15.7322 8.19675 15.8011 8.17093 15.8655C8.14512 15.9299 8.10697 15.9884 8.0587 16.0378C8.01042 16.0872 7.95298 16.1263 7.88968 16.1531C7.82638 16.1798 7.75848 16.1936 7.68991 16.1936Z" fill="#B9C1C9"/>
<path d="M7.6901 14.1456C7.37845 14.1451 7.07395 14.051 6.81504 13.8752C6.55614 13.6994 6.35448 13.4497 6.23554 13.1578C6.11659 12.8659 6.0857 12.5448 6.14678 12.235C6.20786 11.9253 6.35816 11.6409 6.57869 11.4177C6.79923 11.1946 7.0801 11.0427 7.3858 10.9812C7.69149 10.9198 8.0083 10.9515 8.29618 11.0725C8.58407 11.1935 8.83009 11.3982 9.00319 11.6609C9.17628 11.9235 9.26867 12.2323 9.26867 12.5481C9.26805 12.972 9.10146 13.3783 8.80549 13.6778C8.50952 13.9773 8.10836 14.1456 7.6901 14.1456ZM7.6901 11.9983C7.58281 11.9983 7.47794 12.0306 7.38872 12.091C7.29951 12.1514 7.22998 12.2373 7.18892 12.3377C7.14787 12.4382 7.13713 12.5487 7.15806 12.6554C7.17899 12.762 7.23066 12.86 7.30653 12.9369C7.3824 13.0138 7.47906 13.0661 7.58429 13.0873C7.68952 13.1086 7.79859 13.0977 7.89772 13.0561C7.99684 13.0144 8.08156 12.944 8.14117 12.8536C8.20078 12.7632 8.2326 12.6569 8.2326 12.5481C8.2326 12.4023 8.17544 12.2625 8.0737 12.1594C7.97197 12.0563 7.83398 11.9983 7.6901 11.9983Z" fill="#B9C1C9"/>
<path d="M12.7961 20H2.58669C1.90085 19.9994 1.24327 19.723 0.758304 19.2315C0.273338 18.74 0.00061649 18.0736 0 17.3785V9.76408C0.00061649 9.06901 0.273338 8.40258 0.758304 7.91109C1.24327 7.41959 1.90085 7.1432 2.58669 7.14258H12.7961C13.4819 7.1432 14.1395 7.41959 14.6245 7.91109C15.1094 8.40258 15.3822 9.06901 15.3828 9.76408V17.3761C15.3828 18.0716 15.1103 18.7386 14.6253 19.2306C14.1403 19.7226 13.4823 19.9994 12.7961 20ZM2.58669 8.20203C2.17482 8.20203 1.77982 8.36785 1.48858 8.663C1.19735 8.95816 1.03373 9.35846 1.03373 9.77588V17.3879C1.03435 17.8049 1.19824 18.2046 1.48941 18.4993C1.78058 18.7939 2.17523 18.9594 2.58669 18.9594H12.7961C13.2072 18.9588 13.6012 18.793 13.8919 18.4984C14.1825 18.2038 14.3461 17.8045 14.3467 17.3879V9.76408C14.3467 9.34708 14.1834 8.94712 13.8927 8.65203C13.602 8.35694 13.2076 8.19086 12.7961 8.19024L2.58669 8.20203Z" fill="#B9C1C9"/>
</svg>
