<svg width="19" height="20" viewBox="0 0 19 20" fill="none" xmlns="http://www.w3.org/2000/svg">
<path d="M9.0997 11.3785C7.9804 11.3785 6.88624 11.0448 5.95558 10.4197C5.02492 9.79451 4.29955 8.90598 3.87122 7.86641C3.44288 6.82683 3.33081 5.68292 3.54917 4.57932C3.76754 3.47572 4.30653 2.46199 5.09799 1.66634C5.88945 0.870688 6.89784 0.328839 7.99563 0.109319C9.09342 -0.110202 10.2313 0.00246775 11.2654 0.433072C12.2995 0.863676 13.1834 1.59288 13.8052 2.52847C14.4271 3.46405 14.759 4.56401 14.759 5.68923C14.7552 7.19695 14.1578 8.64185 13.0973 9.70797C12.0368 10.7741 10.5995 11.3747 9.0997 11.3785ZM9.0997 1.03592C8.1855 1.03592 7.29185 1.30847 6.53176 1.81911C5.77167 2.32974 5.17929 3.05553 4.82955 3.90465C4.47981 4.75377 4.38842 5.68808 4.56694 6.58942C4.74547 7.49076 5.18588 8.31863 5.83247 8.96832C6.47907 9.618 7.3028 10.0603 8.19949 10.2393C9.09617 10.4183 10.0255 10.326 10.87 9.97397C11.7145 9.62194 12.4361 9.02606 12.9437 8.26168C13.4512 7.49731 13.7219 6.59878 13.7214 5.67975C13.7196 4.4483 13.2319 3.26786 12.3655 2.39731C11.4991 1.52676 10.3247 1.03718 9.0997 1.03592Z" fill="#B9C1C9"/>
<path d="M17.6734 20.0002C17.5346 20.0002 17.4014 19.9448 17.3033 19.8461C17.2051 19.7474 17.1499 19.6136 17.1499 19.474C17.1499 17.3276 16.3018 15.2691 14.7921 13.7514C13.2823 12.2337 11.2347 11.3811 9.09963 11.3811C6.96455 11.3811 4.91693 12.2337 3.4072 13.7514C1.89748 15.2691 1.04932 17.3276 1.04932 19.474C1.0404 19.6078 0.981239 19.7331 0.883828 19.8247C0.786417 19.9163 0.658028 19.9672 0.524659 19.9672C0.39129 19.9672 0.262904 19.9163 0.165493 19.8247C0.0680819 19.7331 0.00892606 19.6078 0 19.474C0 17.0478 0.958708 14.7211 2.66522 13.0055C4.37173 11.29 6.68625 10.3262 9.09963 10.3262C11.513 10.3262 13.8275 11.29 15.534 13.0055C17.2405 14.7211 18.1993 17.0478 18.1993 19.474C18.1993 19.5433 18.1856 19.6119 18.1592 19.6759C18.1327 19.7399 18.094 19.798 18.0451 19.8469C17.9962 19.8958 17.9382 19.9345 17.8745 19.9608C17.8107 19.9872 17.7424 20.0005 17.6734 20.0002Z" fill="#B9C1C9"/>
</svg>
