<svg width="12" height="15" viewBox="0 0 12 15" fill="none" xmlns="http://www.w3.org/2000/svg">
<g clip-path="url(#clip0_358_1130)">
<path d="M6.02118 3.23764C5.47302 3.23744 4.93711 3.39371 4.48124 3.68667C4.02537 3.97963 3.67003 4.39612 3.46016 4.88346C3.25029 5.37079 3.19533 5.90708 3.30222 6.42449C3.40911 6.94189 3.67306 7.41717 4.06067 7.79019C4.44828 8.16321 4.94215 8.41722 5.47979 8.52009C6.01743 8.62296 6.5747 8.57006 7.0811 8.36809C7.5875 8.16612 8.02028 7.82416 8.3247 7.38545C8.62911 6.94674 8.79149 6.431 8.79129 5.90347C8.7902 5.19677 8.498 4.51932 7.97874 4.0196C7.45948 3.51989 6.75553 3.23869 6.02118 3.23764ZM6.02118 7.38107C5.71747 7.38127 5.42051 7.29478 5.16788 7.13253C4.91525 6.97029 4.7183 6.73959 4.60193 6.46961C4.48556 6.19963 4.45501 5.90251 4.51413 5.61581C4.57326 5.32912 4.71941 5.06574 4.9341 4.859C5.14879 4.65225 5.42237 4.51143 5.72023 4.45433C6.0181 4.39724 6.32687 4.42644 6.60749 4.53825C6.88811 4.65006 7.12796 4.83944 7.29672 5.08245C7.46548 5.32547 7.55555 5.61119 7.55556 5.90347C7.55556 6.29537 7.394 6.67126 7.10633 6.94865C6.81867 7.22604 6.42841 7.38227 6.02118 7.38306V7.38107Z" fill="#999999"/>
<path d="M5.99949 0C2.69184 0 0 2.63511 0 5.87573C0 6.91728 0.174034 7.51189 0.458252 8.39687C1.22235 10.7674 4.65562 13.9743 5.43105 14.6779C5.45299 14.7189 5.47995 14.7571 5.51137 14.7919C5.56941 14.8566 5.64115 14.9086 5.72177 14.9445C5.8024 14.9804 5.89006 14.9993 5.97889 15C5.9981 15.001 6.01735 15.001 6.03656 15C6.12232 14.9973 6.2066 14.9777 6.28418 14.9424C6.36177 14.9072 6.431 14.8569 6.4876 14.7949C6.51902 14.7601 6.54598 14.7218 6.56792 14.6809C7.34231 13.9793 10.7715 10.7743 11.5366 8.41272C11.8239 7.52081 12 6.9262 12 5.8787C12 2.63511 9.30816 0 5.99949 0ZM10.3606 8.05596C9.7592 9.91312 7.05295 12.572 6.0036 13.5541C4.95323 12.572 2.24491 9.91114 1.64352 8.04407C1.37063 7.19774 1.23985 6.75575 1.23985 5.87573C1.23985 3.29116 3.37664 1.18922 6.0036 1.18922C8.63057 1.18922 10.7684 3.29116 10.7684 5.87573C10.7643 6.75575 10.6242 7.22846 10.3606 8.05596Z" fill="#999999"/>
</g>
<defs>
<clipPath id="clip0_358_1130">
<rect width="12" height="15" fill="white"/>
</clipPath>
</defs>
</svg>
