<svg width="14" height="9" viewBox="0 0 14 9" fill="none" xmlns="http://www.w3.org/2000/svg">
<path d="M13.2563 3.36275H11.5814L12.2626 0.963964C12.2896 0.868548 12.2978 0.768671 12.2867 0.670041C12.2757 0.571412 12.2456 0.475959 12.1982 0.389132C12.1025 0.213777 11.9422 0.0842054 11.7524 0.0289186C11.6585 0.00154335 11.5601 -0.00677371 11.463 0.00444922C11.3659 0.0156722 11.2719 0.046216 11.1864 0.0943286C11.0137 0.191496 10.8861 0.354342 10.8317 0.547044L9.24012 6.1694L7.55036 0.788737H6.13132L4.53676 6.09992L2.9541 0.547044C2.89966 0.354342 2.77207 0.191496 2.5994 0.0943286C2.42672 -0.00283908 2.22311 -0.0263682 2.03336 0.0289186C1.8436 0.0842054 1.68325 0.213777 1.58757 0.389132C1.49189 0.564487 1.46872 0.771262 1.52316 0.963964L2.20442 3.36275H0.743731C0.546482 3.36275 0.357308 3.44233 0.217831 3.58397C0.0783544 3.72562 0 3.91772 0 4.11804C0 4.31835 0.0783544 4.51047 0.217831 4.65211C0.357308 4.79375 0.546482 4.87333 0.743731 4.87333H2.62983L3.79303 8.97907H5.22099L6.84828 3.541L8.55886 8.97907L9.98385 8.95792L11.147 4.85218H13.2563C13.4535 4.85218 13.6427 4.7726 13.7822 4.63096C13.9216 4.48932 14 4.29721 14 4.09689C14 3.89658 13.9216 3.70447 13.7822 3.56283C13.6427 3.42118 13.4535 3.34161 13.2563 3.34161V3.36275Z" fill="#999999"/>
</svg>
