<svg width="16" height="14" viewBox="0 0 16 14" fill="none" xmlns="http://www.w3.org/2000/svg">
<path d="M11 2H13C13.2652 2 13.5196 2.10536 13.7071 2.29289C13.8946 2.48043 14 2.73478 14 3V11C14 11.2652 13.8946 11.5196 13.7071 11.7071C13.5196 11.8946 13.2652 12 13 12H11C10.7348 12 10.4804 12.1054 10.2929 12.2929C10.1054 12.4804 10 12.7348 10 13C10 13.2652 10.1054 13.5196 10.2929 13.7071C10.4804 13.8946 10.7348 14 11 14H13C13.7956 14 14.5587 13.6839 15.1213 13.1213C15.6839 12.5587 16 11.7956 16 11V3C16 2.20435 15.6839 1.44129 15.1213 0.87868C14.5587 0.316071 13.7956 0 13 0H11C10.7348 0 10.4804 0.105357 10.2929 0.292893C10.1054 0.48043 10 0.734784 10 1C10 1.26522 10.1054 1.51957 10.2929 1.70711C10.4804 1.89464 10.7348 2 11 2ZM10.7063 7.70625C10.7993 7.61337 10.8732 7.50304 10.9235 7.38158C10.9739 7.26013 10.9998 7.12993 10.9998 6.99844C10.9998 6.86695 10.9739 6.73675 10.9235 6.61529C10.8732 6.49384 10.7993 6.38351 10.7063 6.29062L6.70625 2.29063C6.6133 2.19767 6.50295 2.12394 6.3815 2.07364C6.26006 2.02333 6.12989 1.99744 5.99844 1.99744C5.86698 1.99744 5.73682 2.02333 5.61537 2.07364C5.49393 2.12394 5.38358 2.19767 5.29063 2.29063C5.19767 2.38358 5.12394 2.49393 5.07364 2.61537C5.02333 2.73682 4.99744 2.86698 4.99744 2.99844C4.99744 3.12989 5.02333 3.26006 5.07364 3.3815C5.12394 3.50295 5.19767 3.6133 5.29063 3.70625L7.58438 6H1C0.734784 6 0.48043 6.10536 0.292893 6.29289C0.105357 6.48043 0 6.73478 0 7C0 7.26522 0.105357 7.51957 0.292893 7.70711C0.48043 7.89464 0.734784 8 1 8H7.58438L5.29063 10.2937C5.1029 10.4815 4.99744 10.7361 4.99744 11.0016C4.99744 11.267 5.1029 11.5217 5.29063 11.7094C5.47835 11.8971 5.73296 12.0026 5.99844 12.0026C6.26392 12.0026 6.51853 11.8971 6.70625 11.7094L10.7063 7.70938V7.70625Z" fill="url(#paint0_linear_358_1645)"/>
<defs>
<linearGradient id="paint0_linear_358_1645" x1="0" y1="7" x2="16" y2="7" gradientUnits="userSpaceOnUse">
<stop stop-color="#3D99D5"/>
<stop offset="1" stop-color="#00AE6A"/>
</linearGradient>
</defs>
</svg>
