<svg width="9" height="12" viewBox="0 0 9 12" fill="none" xmlns="http://www.w3.org/2000/svg">
<path d="M0 1.5C0.00037233 1.10229 0.158527 0.720976 0.439751 0.439753C0.720975 0.158529 1.10229 0.000373824 1.5 1.49363e-06H5.00391C5.20099 -0.000276625 5.3962 0.0382878 5.57838 0.113491C5.76055 0.188693 5.92612 0.29906 6.06563 0.438283L8.56172 2.93672C8.70094 3.07622 8.81131 3.24179 8.88651 3.42397C8.96171 3.60614 9.00028 3.80135 9 3.99844V10.5C8.99963 10.8977 8.84147 11.279 8.56025 11.5603C8.27903 11.8415 7.89771 11.9996 7.5 12H1.5C1.10229 11.9996 0.720975 11.8415 0.439751 11.5603C0.158527 11.279 0.00037233 10.8977 0 10.5V1.5ZM4.875 1.3711V3.5625C4.87481 3.63642 4.88924 3.70965 4.91744 3.77798C4.94564 3.84631 4.98707 3.90839 5.03934 3.96066C5.09161 4.01293 5.15369 4.05436 5.22202 4.08256C5.29035 4.11076 5.36358 4.12519 5.4375 4.125H7.62891L4.875 1.3711ZM2.8125 6C2.66332 6 2.52024 6.05927 2.41475 6.16475C2.30926 6.27024 2.25 6.41332 2.25 6.5625C2.25 6.71169 2.30926 6.85476 2.41475 6.96025C2.52024 7.06574 2.66332 7.125 2.8125 7.125H6.1875C6.33668 7.125 6.47976 7.06574 6.58525 6.96025C6.69074 6.85476 6.75 6.71169 6.75 6.5625C6.75 6.41332 6.69074 6.27024 6.58525 6.16475C6.47976 6.05927 6.33668 6 6.1875 6H2.8125ZM2.8125 8.25C2.66332 8.25 2.52024 8.30927 2.41475 8.41475C2.30926 8.52024 2.25 8.66332 2.25 8.8125C2.25 8.96169 2.30926 9.10476 2.41475 9.21025C2.52024 9.31574 2.66332 9.375 2.8125 9.375H6.1875C6.33668 9.375 6.47976 9.31574 6.58525 9.21025C6.69074 9.10476 6.75 8.96169 6.75 8.8125C6.75 8.66332 6.69074 8.52024 6.58525 8.41475C6.47976 8.30927 6.33668 8.25 6.1875 8.25H2.8125Z" fill="url(#paint0_linear_158_1429)"/>
<defs>
<linearGradient id="paint0_linear_158_1429" x1="4.5" y1="0" x2="4.5" y2="12" gradientUnits="userSpaceOnUse">
<stop stop-color="#3D99D5"/>
<stop offset="1" stop-color="#00AE6A"/>
</linearGradient>
</defs>
</svg>
