<svg width="14" height="18" viewBox="0 0 14 18" fill="none" xmlns="http://www.w3.org/2000/svg">
<path d="M2.33333 1.6875H6.41667V4.78125C6.41667 5.45258 6.69323 6.09641 7.18551 6.57111C7.67779 7.04582 8.34547 7.3125 9.04167 7.3125H12.25V15.75C12.25 15.8992 12.1885 16.0423 12.0791 16.1477C11.9697 16.2532 11.8214 16.3125 11.6667 16.3125H2.33333C2.17862 16.3125 2.03025 16.2532 1.92085 16.1477C1.81146 16.0423 1.75 15.8992 1.75 15.75V2.25C1.75 2.10082 1.81146 1.95774 1.92085 1.85225C2.03025 1.74676 2.17862 1.6875 2.33333 1.6875ZM8.16667 2.38711L11.5245 5.625H9.04167C8.92668 5.62528 8.81277 5.60364 8.70648 5.56134C8.60019 5.51904 8.50361 5.4569 8.4223 5.37849C8.34099 5.30009 8.27655 5.20696 8.23268 5.10447C8.18881 5.00198 8.16638 4.89213 8.16667 4.78125V2.38711ZM2.33333 1.6457e-06C1.71467 0.000560141 1.12152 0.237792 0.684057 0.659628C0.246598 1.08146 0.00057918 1.65344 0 2.25V15.75C0.00057918 16.3466 0.246598 16.9185 0.684057 17.3404C1.12152 17.7622 1.71467 17.9994 2.33333 18H11.6667C12.2853 17.9994 12.8785 17.7622 13.3159 17.3404C13.7534 16.9185 13.9994 16.3466 14 15.75V6.55664C14.0004 6.26101 13.9404 5.9682 13.8235 5.69493C13.7065 5.42167 13.5348 5.17331 13.3182 4.96406L8.84844 0.657423C8.63212 0.448681 8.37521 0.283159 8.09242 0.170345C7.80964 0.0575314 7.50655 -0.000355841 7.20052 1.6457e-06H2.33333ZM4.375 9C4.14293 9 3.92038 9.0889 3.75628 9.24713C3.59219 9.40536 3.5 9.61998 3.5 9.84375C3.5 10.0675 3.59219 10.2821 3.75628 10.4404C3.92038 10.5986 4.14293 10.6875 4.375 10.6875H9.625C9.85706 10.6875 10.0796 10.5986 10.2437 10.4404C10.4078 10.2821 10.5 10.0675 10.5 9.84375C10.5 9.61998 10.4078 9.40536 10.2437 9.24713C10.0796 9.0889 9.85706 9 9.625 9H4.375ZM4.375 12.375C4.14293 12.375 3.92038 12.4639 3.75628 12.6221C3.59219 12.7804 3.5 12.995 3.5 13.2188C3.5 13.4425 3.59219 13.6571 3.75628 13.8154C3.92038 13.9736 4.14293 14.0625 4.375 14.0625H9.625C9.85706 14.0625 10.0796 13.9736 10.2437 13.8154C10.4078 13.6571 10.5 13.4425 10.5 13.2188C10.5 12.995 10.4078 12.7804 10.2437 12.6221C10.0796 12.4639 9.85706 12.375 9.625 12.375H4.375Z" fill="url(#paint0_linear_248_645)"/>
<defs>
<linearGradient id="paint0_linear_248_645" x1="7" y1="0" x2="7" y2="18" gradientUnits="userSpaceOnUse">
<stop stop-color="#3D99D5"/>
<stop offset="1" stop-color="#00AE6A"/>
</linearGradient>
</defs>
</svg>
