<svg width="11" height="14" viewBox="0 0 11 14" fill="none" xmlns="http://www.w3.org/2000/svg">
<path d="M1.83333 1.3125H5.04167V3.71875C5.04167 4.2409 5.25896 4.74165 5.64576 5.11087C6.03255 5.48008 6.55716 5.6875 7.10417 5.6875H9.625V12.25C9.625 12.366 9.57671 12.4773 9.49076 12.5594C9.4048 12.6414 9.28822 12.6875 9.16667 12.6875H1.83333C1.71178 12.6875 1.5952 12.6414 1.50924 12.5594C1.42329 12.4773 1.375 12.366 1.375 12.25V1.75C1.375 1.63397 1.42329 1.52269 1.50924 1.44064C1.5952 1.35859 1.71178 1.3125 1.83333 1.3125ZM6.41667 1.85664L9.05495 4.375H7.10417C7.01382 4.37522 6.92432 4.35839 6.8408 4.32549C6.75729 4.29258 6.68141 4.24425 6.61752 4.18327C6.55364 4.12229 6.50301 4.04986 6.46854 3.97014C6.43407 3.89042 6.41644 3.80499 6.41667 3.71875V1.85664ZM1.83333 1.27999e-06C1.34724 0.000435665 0.881191 0.18495 0.537473 0.513044C0.193755 0.841139 0.00045507 1.28601 0 1.75V12.25C0.00045507 12.714 0.193755 13.1589 0.537473 13.487C0.881191 13.8151 1.34724 13.9996 1.83333 14H9.16667C9.65276 13.9996 10.1188 13.8151 10.4625 13.487C10.8062 13.1589 10.9995 12.714 11 12.25V5.09961C11.0003 4.86968 10.9532 4.64193 10.8613 4.42939C10.7694 4.21685 10.6345 4.02369 10.4643 3.86094L6.95234 0.511329C6.78238 0.348974 6.58052 0.220235 6.35833 0.132491C6.13615 0.0447466 5.898 -0.000276765 5.65755 1.27999e-06H1.83333ZM3.4375 7C3.25516 7 3.08029 7.06914 2.95136 7.19221C2.82243 7.31528 2.75 7.4822 2.75 7.65625C2.75 7.8303 2.82243 7.99722 2.95136 8.12029C3.08029 8.24336 3.25516 8.3125 3.4375 8.3125H7.5625C7.74483 8.3125 7.9197 8.24336 8.04863 8.12029C8.17757 7.99722 8.25 7.8303 8.25 7.65625C8.25 7.4822 8.17757 7.31528 8.04863 7.19221C7.9197 7.06914 7.74483 7 7.5625 7H3.4375ZM3.4375 9.625C3.25516 9.625 3.08029 9.69414 2.95136 9.81721C2.82243 9.94028 2.75 10.1072 2.75 10.2812C2.75 10.4553 2.82243 10.6222 2.95136 10.7453C3.08029 10.8684 3.25516 10.9375 3.4375 10.9375H7.5625C7.74483 10.9375 7.9197 10.8684 8.04863 10.7453C8.17757 10.6222 8.25 10.4553 8.25 10.2812C8.25 10.1072 8.17757 9.94028 8.04863 9.81721C7.9197 9.69414 7.74483 9.625 7.5625 9.625H3.4375Z" fill="#999999"/>
</svg>
