<svg width="15" height="17" viewBox="0 0 15 17" fill="none" xmlns="http://www.w3.org/2000/svg">
<path d="M2.49795 7.79613C2.56179 7.90804 2.62928 8.01716 2.70043 8.12351C3.17541 8.83452 3.81739 9.41725 4.56973 9.82028C5.32207 10.2233 6.16166 10.4343 7.01441 10.4345C7.86701 10.4341 8.70642 10.2231 9.4586 9.82011C10.2108 9.41708 10.8526 8.83442 11.3275 8.12351C11.3986 8.01716 11.466 7.90804 11.5297 7.79613C11.599 7.6747 11.6634 7.5497 11.7227 7.42232C12.0447 6.73223 12.2112 5.97933 12.2103 5.21726C12.2106 4.66727 12.124 4.12071 11.9539 3.59792C11.91 3.46399 11.8612 3.33244 11.8074 3.20327C11.7576 3.08423 11.7037 2.96776 11.6456 2.85387C11.2106 1.99568 10.5477 1.27494 9.73016 0.771301C8.91266 0.267661 7.97238 0.000728068 7.01322 0C6.05409 0.000828879 5.11385 0.267804 4.29636 0.771433C3.47888 1.27506 2.81597 1.99574 2.38086 2.85387C2.32275 2.96796 2.2689 3.08442 2.21929 3.20327C2.16533 3.33224 2.11652 3.46379 2.07284 3.59792C1.90256 4.12068 1.816 4.66726 1.81641 5.21726C1.81558 5.9793 1.98198 6.73216 2.30378 7.42232C2.36455 7.5497 2.42888 7.6747 2.49795 7.79613ZM7.01441 1.37798C8.99086 1.37798 10.6216 2.89107 10.8188 4.82381C10.832 4.95454 10.8386 5.08586 10.8386 5.21726C10.8388 5.50304 10.8072 5.78794 10.7444 6.06667C10.359 7.77649 8.83255 9.05655 7.01441 9.05655C5.19626 9.05655 3.67102 7.77679 3.28474 6.06696C3.22185 5.78814 3.19013 5.50315 3.19017 5.21726C3.19015 5.08575 3.19688 4.95433 3.21033 4.82351C3.40747 2.89077 5.03826 1.37798 7.01441 1.37798Z" fill="#3D99D5"/>
<path d="M12.5426 13.1898C12.46 13.114 12.3741 13.0397 12.285 12.9669C12.1546 12.8608 12.0175 12.7578 11.8738 12.658C11.6832 12.5264 11.4834 12.4041 11.2762 12.2898C11.173 12.2333 11.0682 12.1789 10.9616 12.1267C10.8551 12.0745 10.7464 12.0249 10.6355 11.9779C9.55377 11.5101 8.30808 11.2598 7.01169 11.2598C5.71531 11.2598 4.4711 11.5101 3.38994 11.9773C3.27965 12.0249 3.17086 12.0743 3.06384 12.1261C2.95682 12.1779 2.85187 12.2333 2.74901 12.2898C2.54332 12.4024 2.34345 12.5254 2.15017 12.6583C2.00609 12.7575 1.86894 12.8606 1.73869 12.9675C1.64976 13.0401 1.56399 13.1143 1.48137 13.1901C1.39876 13.2659 1.31823 13.3443 1.23976 13.4252C0.433414 14.2616 0 15.2574 0 16.3121C7.86019e-05 16.4949 0.072451 16.6702 0.201202 16.7994C0.329953 16.9286 0.504543 17.0011 0.686585 17.0011C0.868576 17.0011 1.04309 16.9284 1.17178 16.7992C1.30046 16.6701 1.37279 16.4949 1.37287 16.3121C1.37287 15.3806 1.92516 14.4866 2.92776 13.7949C4.00893 13.0491 5.45917 12.6383 7.0111 12.6383C8.56303 12.6383 10.0133 13.0491 11.0947 13.7949C12.1003 14.4871 12.6523 15.38 12.6523 16.3113C12.6524 16.494 12.7247 16.6693 12.8535 16.7985C12.9822 16.9277 13.1568 17.0002 13.3389 17.0002C13.5208 17.0001 13.6953 16.9274 13.8239 16.7983C13.9525 16.6691 14.0248 16.4939 14.0249 16.3113C14.0249 15.2571 13.5915 14.2613 12.7851 13.4243C12.7082 13.345 12.6274 13.2668 12.5426 13.1898Z" fill="#3D99D5"/>
</svg>
