<svg width="12" height="15" viewBox="0 0 12 15" fill="none" xmlns="http://www.w3.org/2000/svg">
<path d="M5.99992 14.3998L5.81448 14.3444C5.27951 14.1849 3.96649 13.4684 2.72229 12.3722C1.47809 11.2759 0 9.55046 0 7.53335V1.64298L0.641564 1.65064C0.684597 1.65064 0.728945 1.65091 0.774607 1.65144C1.92305 1.65144 4.07802 1.47594 5.60703 0.301857L5.99992 0L6.39297 0.301857C7.92198 1.4761 10.077 1.65144 11.2254 1.65144C11.2711 1.65144 11.3154 1.65117 11.3584 1.65064L12 1.64298V7.53335C12 9.55046 10.5196 11.2782 9.27771 12.3725C8.03581 13.4668 6.72049 14.1857 6.18536 14.3444L5.99992 14.3998ZM1.26736 2.87323V7.53335C1.26736 9.09975 2.52158 10.5328 3.57377 11.4607C4.58654 12.353 5.56219 12.8988 5.99992 13.0946C6.43765 12.8988 7.41248 12.353 8.42607 11.4607C9.47826 10.5336 10.7326 9.09943 10.7326 7.53335V2.87323C9.46413 2.82377 7.55915 2.5594 5.99992 1.54582C4.44085 2.55893 2.53587 2.82313 1.26736 2.87323Z" fill="#999999"/>
<path d="M5.3085 9.73501L3.20215 7.68902L4.20621 6.71372L5.3085 7.78442L8.52108 4.66406L9.52498 5.63936L5.3085 9.73501Z" fill="#999999"/>
</svg>
