<svg width="25" height="36" viewBox="0 0 25 36" fill="none" xmlns="http://www.w3.org/2000/svg">
<g clip-path="url(#clip0_446_419)">
<path d="M12.498 36C12.498 36 21.3766 19.3853 21.3766 12.4915C21.3766 5.59771 17.4003 0 12.498 0C15.8139 0 18.9939 1.31606 21.3385 3.65868C23.6832 6.00129 25.0004 9.17857 25.0004 12.4915C25.0004 19.3853 12.498 36 12.498 36Z" fill="#E03F3F"/>
<path d="M21.3762 12.4915C21.3762 19.3853 12.4976 36 12.4976 36C12.4976 36 0 19.3853 0 12.4915C-2.34257e-07 9.17938 1.31656 6.00282 3.66019 3.66034C6.00382 1.31786 9.18263 0.00124517 12.4976 0C17.3999 0 21.3762 5.59301 21.3762 12.4915Z" fill="#E9524B"/>
<path d="M12.4974 17.1969C15.3372 17.1969 17.6394 14.8967 17.6394 12.0594C17.6394 9.22201 15.3372 6.92188 12.4974 6.92188C9.6576 6.92188 7.35547 9.22201 7.35547 12.0594C7.35547 14.8967 9.6576 17.1969 12.4974 17.1969Z" fill="#F0FBFC"/>
</g>
<defs>
<clipPath id="clip0_446_419">
<rect width="25" height="36" fill="white"/>
</clipPath>
</defs>
</svg>
