<svg width="15" height="15" viewBox="0 0 15 15" fill="none" xmlns="http://www.w3.org/2000/svg">
<path d="M10.0864 14.9985C9.29161 15.0011 8.50433 14.8457 7.77077 14.5414C7.03722 14.237 6.37219 13.7899 5.81476 13.2262L1.73752 9.13025C0.617213 8.00185 -0.00761589 6.47746 7.00775e-05 4.89136C0.00775605 3.30526 0.647324 1.78693 1.77852 0.66933L2.30393 0.152603C2.35318 0.103312 2.41174 0.0641902 2.47624 0.0374981C2.54074 0.010806 2.60991 -0.00292969 2.67976 -0.00292969C2.74962 -0.00292969 2.81879 0.010806 2.88329 0.0374981C2.94779 0.0641902 3.00635 0.103312 3.0556 0.152603L6.01369 3.11997C6.0642 3.16921 6.10432 3.22798 6.13171 3.29284C6.1591 3.3577 6.17322 3.42734 6.17322 3.49769C6.17322 3.56804 6.1591 3.63768 6.13171 3.70254C6.10432 3.7674 6.0642 3.82617 6.01369 3.87541C5.6044 4.27908 5.37291 4.82791 5.37006 5.4013C5.36721 5.97469 5.59325 6.52575 5.99851 6.93343L8.06674 9.0124C8.26733 9.21458 8.50604 9.37538 8.76921 9.4856C9.03237 9.59581 9.31481 9.65326 9.60034 9.65467C9.88586 9.65607 10.1688 9.60139 10.4331 9.49377C10.6973 9.38615 10.9377 9.2277 11.1402 9.0275C11.1896 8.97706 11.2486 8.93698 11.3138 8.90961C11.3791 8.88224 11.4491 8.86813 11.5199 8.86813C11.5906 8.86813 11.6607 8.88224 11.7259 8.90961C11.7911 8.93698 11.8501 8.97706 11.8995 9.0275L14.853 11.9934C14.9035 12.0426 14.9437 12.1014 14.971 12.1662C14.9984 12.2311 15.0126 12.3007 15.0126 12.3711C15.0126 12.4414 14.9984 12.5111 14.971 12.5759C14.9437 12.6408 14.9035 12.6996 14.853 12.7488L14.3276 13.2655C13.7702 13.8181 13.1086 14.2556 12.3807 14.553C11.6529 14.8504 10.8732 15.0018 10.0864 14.9985ZM2.67293 1.27671L2.52108 1.42779C1.58978 2.34739 1.0631 3.59697 1.05655 4.90243C1.05 6.20788 1.56413 7.46263 2.48616 8.39143L6.56947 12.4874C7.49338 13.4152 8.74976 13.9401 10.0624 13.9466C11.3751 13.9531 12.6367 13.4407 13.5699 12.5222L13.7217 12.3711L11.4804 10.1259C10.8545 10.5662 10.0919 10.7712 9.32835 10.7046C8.56478 10.6379 7.84974 10.3038 7.31051 9.76179L5.23468 7.67527C4.69562 7.13332 4.36715 6.41875 4.30766 5.65857C4.24816 4.89838 4.46148 4.14183 4.90972 3.52338L2.67293 1.27671Z" fill="#999999"/>
</svg>
