<svg width="2" height="12" viewBox="0 0 2 12" fill="none" xmlns="http://www.w3.org/2000/svg">
<path d="M1 10.125C1.16482 10.125 1.32593 10.18 1.46298 10.283C1.60002 10.386 1.70683 10.5324 1.7699 10.7037C1.83297 10.875 1.84948 11.0635 1.81732 11.2454C1.78517 11.4273 1.7058 11.5943 1.58926 11.7254C1.47271 11.8565 1.32423 11.9458 1.16258 11.982C1.00092 12.0182 0.833369 11.9996 0.681097 11.9286C0.528825 11.8577 0.398676 11.7375 0.307109 11.5833C0.215541 11.4292 0.166667 11.2479 0.166667 11.0625C0.166667 10.8139 0.254464 10.5754 0.410744 10.3996C0.567025 10.2238 0.778986 10.125 1 10.125ZM1 0C1.26522 0 1.51957 0.118526 1.70711 0.329505C1.89464 0.540483 2 0.826631 2 1.125V1.16484L1.66667 8.28984C1.66667 8.48876 1.59643 8.67952 1.4714 8.82017C1.34638 8.96083 1.17681 9.03984 1 9.03984C0.823189 9.03984 0.65362 8.96083 0.528596 8.82017C0.403571 8.67952 0.333333 8.48876 0.333333 8.28984L0 1.16484V1.125C0 0.826631 0.105357 0.540483 0.292893 0.329505C0.480429 0.118526 0.734784 0 1 0Z" fill="#FEBC2F"/>
</svg>
