<svg width="100" height="90" viewBox="0 0 100 90" fill="none" xmlns="http://www.w3.org/2000/svg">
<g clip-path="url(#clip0_248_733)">
<path fill-rule="evenodd" clip-rule="evenodd" d="M50.0005 58.8288C49.4339 58.8288 48.8728 58.7166 48.3494 58.4988C47.826 58.2809 47.3505 57.9616 46.95 57.559C46.5496 57.1565 46.232 56.6787 46.0156 56.1528C45.7991 55.627 45.688 55.0635 45.6885 54.4945V35.5023C45.688 34.9333 45.7991 34.3697 46.0156 33.8439C46.232 33.3181 46.5496 32.8402 46.95 32.4377C47.3505 32.0352 47.826 31.7158 48.3494 31.498C48.8728 31.2801 49.4339 31.168 50.0005 31.168C50.5671 31.168 51.1281 31.2801 51.6515 31.498C52.175 31.7158 52.6505 32.0352 53.0509 32.4377C53.4514 32.8402 53.7689 33.3181 53.9854 33.8439C54.2019 34.3697 54.313 34.9333 54.3125 35.5023V54.4945C54.313 55.0635 54.2019 55.627 53.9854 56.1528C53.7689 56.6787 53.4514 57.1565 53.0509 57.559C52.6505 57.9616 52.175 58.2809 51.6515 58.4988C51.1281 58.7166 50.5671 58.8288 50.0005 58.8288Z" fill="#FF5F57"/>
<path fill-rule="evenodd" clip-rule="evenodd" d="M50.0005 72.2495C49.4339 72.2495 48.8728 72.1374 48.3494 71.9195C47.826 71.7017 47.3505 71.3823 46.95 70.9798C46.5496 70.5773 46.232 70.0994 46.0156 69.5736C45.7991 69.0478 45.688 68.4842 45.6885 67.9152C45.6885 66.7668 46.1428 65.6654 46.9514 64.8533C47.7601 64.0412 48.8569 63.585 50.0005 63.585C51.1441 63.585 52.2409 64.0412 53.0495 64.8533C53.8582 65.6654 54.3125 66.7668 54.3125 67.9152C54.313 68.4842 54.2019 69.0478 53.9854 69.5736C53.7689 70.0994 53.4514 70.5773 53.0509 70.9798C52.6505 71.3823 52.175 71.7017 51.6515 71.9195C51.1281 72.1374 50.5671 72.2495 50.0005 72.2495Z" fill="#FF5F57"/>
<path d="M98.5043 73.0846L59.7043 5.59967C58.723 3.88393 57.3083 2.45851 55.6031 1.46728C53.8979 0.476057 51.9625 -0.0458984 49.9923 -0.0458984C48.022 -0.0458984 46.0866 0.476057 44.3814 1.46728C42.6762 2.45851 41.2616 3.88393 40.2803 5.59967L1.48026 73.0846C0.487311 74.8033 -0.0345494 76.7554 -0.0322188 78.7424C-0.0298882 80.7294 0.496551 82.6803 1.49353 84.3966C2.49051 86.1129 3.92245 87.5333 5.64363 88.5133C7.36481 89.4934 9.31379 89.998 11.2923 89.9759H88.6923C90.6707 89.998 92.6197 89.4934 94.3409 88.5133C96.0621 87.5333 97.494 86.1129 98.491 84.3966C99.488 82.6803 100.014 80.7294 100.017 78.7424C100.019 76.7554 99.4972 74.8033 98.5043 73.0846ZM90.5043 80.6807C90.0022 81.1047 89.3641 81.3316 88.7083 81.3194H11.3083C10.6524 81.3316 10.0143 81.1047 9.51226 80.6807C9.05862 80.285 8.75624 79.743 8.65698 79.1479C8.55773 78.5528 8.66778 77.9415 8.96826 77.4189L47.7683 9.93397C47.9948 9.53845 48.3211 9.2099 48.7144 8.98144C49.1076 8.75297 49.5539 8.63268 50.0083 8.63268C50.4626 8.63268 50.9089 8.75297 51.3022 8.98144C51.6954 9.2099 52.0218 9.53845 52.2483 9.93397L91.0483 77.4189C91.3565 77.9469 91.4694 78.5671 91.3669 79.1704C91.2645 79.7737 90.9533 80.3213 90.4883 80.7168L90.5043 80.6807Z" fill="#FF5F57"/>
</g>
<defs>
<clipPath id="clip0_248_733">
<rect width="100" height="90" fill="white"/>
</clipPath>
</defs>
</svg>
